# Blender v2.93.5 OBJ File: ''
# www.blender.org
mtllib Details_Pipes_Small.mtl
o Details_Pipes_Small_Cube.057
v -0.069611 0.019582 -0.022694
v -0.069611 0.045017 -0.033231
v -0.069611 0.045017 -0.048604
v -0.069611 0.008713 -0.033563
v -0.069611 0.070453 -0.022694
v -0.069611 0.081322 -0.033564
v -0.069611 0.080990 0.002742
v -0.069611 0.096363 0.002742
v -0.069611 0.070453 0.028177
v -0.069611 0.081322 0.039046
v -0.069611 0.045017 0.038714
v -0.069611 0.045017 0.054087
v -0.069611 0.019582 0.028177
v -0.069611 0.008713 0.039046
v -0.069611 0.009044 0.002742
v -0.069611 -0.006329 0.002742
v -0.102545 0.016169 -0.026107
v -0.102546 0.045017 -0.038058
v -0.102546 0.045017 -0.033231
v -0.102545 0.019582 -0.022694
v -0.102545 0.085817 0.002742
v -0.102545 0.073866 0.031590
v -0.102545 0.070453 0.028177
v -0.102545 0.080990 0.002742
v -0.102545 0.045017 0.043541
v -0.102545 0.016169 0.031590
v -0.102545 0.019582 0.028177
v -0.102546 0.045017 0.038714
v -0.102545 0.004217 0.002742
v -0.102545 0.009044 0.002742
v -0.102545 0.073866 -0.026107
v -0.102545 0.070453 -0.022694
v -0.121809 0.016169 -0.026107
v -0.121808 0.045017 -0.038058
v -0.121808 0.085817 0.002742
v -0.121809 0.073866 0.031590
v -0.121809 0.073866 -0.026107
v -0.121809 0.004217 0.002742
v -0.121808 0.016169 0.031590
v -0.121808 0.045017 0.043541
v -0.056043 0.081322 0.039046
v -0.056043 0.045017 0.054087
v -0.049260 0.045017 0.054087
v -0.049260 0.081322 0.039046
v -0.056043 -0.006329 0.002742
v -0.056043 0.008713 -0.033563
v -0.049260 0.008713 -0.033563
v -0.049260 -0.006329 0.002742
v -0.056043 0.045017 -0.048604
v -0.056043 0.081322 -0.033564
v -0.049260 0.081322 -0.033564
v -0.049260 0.045017 -0.048604
v -0.056043 0.008713 0.039046
v -0.049260 0.008713 0.039046
v -0.056043 0.096363 0.002742
v -0.049260 0.096363 0.002742
v -0.049260 0.018020 -0.024256
v -0.049260 0.006834 0.002742
v -0.049260 0.045017 0.040924
v -0.049260 0.072015 0.029739
v -0.049260 0.072015 -0.024256
v -0.049260 0.045017 -0.035441
v -0.049260 0.083200 0.002742
v -0.049260 0.018020 0.029739
v 0.110784 0.072015 -0.024256
v 0.110784 0.083200 0.002742
v 0.110784 0.089038 0.002742
v 0.110784 0.076143 -0.028384
v 0.110784 0.018020 -0.024256
v 0.110784 0.045017 -0.035441
v 0.110784 0.045017 -0.041279
v 0.110784 0.013892 -0.028384
v 0.110784 0.072015 0.029739
v 0.110784 0.076143 0.033867
v 0.110784 0.018020 0.029739
v 0.110784 0.006834 0.002742
v 0.110784 0.000996 0.002742
v 0.110784 0.013892 0.033867
v 0.110784 0.045017 0.040924
v 0.110784 0.045017 0.046762
v 0.170423 0.045017 0.046762
v 0.170423 0.076143 0.033867
v 0.170423 0.076143 -0.028384
v 0.170423 0.045017 -0.041279
v 0.170423 0.089038 0.002742
v 0.170423 0.013892 -0.028384
v 0.170423 0.000996 0.002742
v 0.170423 0.013892 0.033867
v -0.062827 -0.006329 0.002742
v -0.062827 0.008713 0.039046
v -0.056548 0.014115 0.033644
v -0.056548 0.001311 0.002742
v -0.062827 0.096363 0.002742
v -0.062827 0.081322 -0.033564
v -0.062827 0.008713 -0.033563
v -0.062827 0.045017 -0.048604
v -0.062322 0.045017 -0.040964
v -0.062322 0.014115 -0.028161
v -0.062827 0.081322 0.039046
v -0.056548 0.075920 0.033645
v -0.056548 0.045017 0.046447
v -0.062827 0.045017 0.054087
v -0.062322 0.001311 0.002742
v -0.062322 0.014115 0.033644
v -0.062322 0.045017 0.046447
v -0.062322 0.075920 0.033645
v -0.056548 0.014115 -0.028161
v -0.062322 0.075920 -0.028162
v -0.062322 0.088723 0.002742
v -0.056548 0.088723 0.002742
v -0.056548 0.075920 -0.028162
v -0.056548 0.045017 -0.040964
v 0.022399 -0.070452 -0.022694
v 0.022399 -0.045017 -0.033231
v 0.022399 -0.045018 -0.048604
v 0.022399 -0.081322 -0.033563
v 0.022399 -0.019582 -0.022694
v 0.022399 -0.008712 -0.033564
v 0.022399 -0.009044 0.002742
v 0.022399 0.006328 0.002742
v 0.022399 -0.019582 0.028177
v 0.022399 -0.008712 0.039046
v 0.022399 -0.045017 0.038714
v 0.022399 -0.045018 0.054087
v 0.022399 -0.070452 0.028177
v 0.022399 -0.081322 0.039046
v 0.022399 -0.080991 0.002742
v 0.022399 -0.096364 0.002742
v -0.083031 -0.073865 -0.026107
v -0.083031 -0.045018 -0.038058
v -0.083031 -0.045018 -0.033231
v -0.083031 -0.070452 -0.022694
v -0.083031 -0.004217 0.002742
v -0.083031 -0.016169 0.031590
v -0.083031 -0.019582 0.028177
v -0.083031 -0.009044 0.002742
v -0.083031 -0.045018 0.043541
v -0.083031 -0.073865 0.031590
v -0.083031 -0.070452 0.028177
v -0.083031 -0.045018 0.038714
v -0.083031 -0.085818 0.002742
v -0.083031 -0.080991 0.002742
v -0.083031 -0.016169 -0.026107
v -0.083031 -0.019582 -0.022694
v -0.121808 -0.073865 -0.026107
v -0.121808 -0.045017 -0.038058
v -0.121809 -0.004217 0.002742
v -0.121808 -0.016169 0.031590
v -0.121808 -0.016169 -0.026107
v -0.121808 -0.085818 0.002742
v -0.121808 -0.073865 0.031590
v -0.121808 -0.045018 0.043541
v 0.035967 -0.008712 0.039046
v 0.035967 -0.045017 0.054087
v 0.042751 -0.045018 0.054087
v 0.042751 -0.008712 0.039046
v 0.035967 -0.096364 0.002742
v 0.035967 -0.081322 -0.033563
v 0.042751 -0.081322 -0.033563
v 0.042751 -0.096364 0.002742
v 0.035967 -0.045017 -0.048604
v 0.035967 -0.008712 -0.033564
v 0.042751 -0.008712 -0.033564
v 0.042751 -0.045018 -0.048604
v 0.035967 -0.081322 0.039046
v 0.042751 -0.081322 0.039046
v 0.035967 0.006328 0.002742
v 0.042751 0.006328 0.002742
v 0.042751 -0.072015 -0.024256
v 0.042751 -0.083200 0.002742
v 0.042751 -0.045017 0.040924
v 0.042751 -0.018019 0.029739
v 0.042751 -0.018019 -0.024256
v 0.042751 -0.045017 -0.035441
v 0.042751 -0.006834 0.002742
v 0.042751 -0.072015 0.029739
v 0.141709 -0.018019 -0.024256
v 0.141709 -0.006834 0.002742
v 0.141709 -0.000997 0.002742
v 0.141709 -0.013892 -0.028384
v 0.141709 -0.072015 -0.024256
v 0.141709 -0.045017 -0.035441
v 0.141709 -0.045017 -0.041279
v 0.141709 -0.076142 -0.028384
v 0.141709 -0.018019 0.029739
v 0.141709 -0.013892 0.033867
v 0.141709 -0.072015 0.029739
v 0.141709 -0.083200 0.002742
v 0.141709 -0.089038 0.002742
v 0.141709 -0.076142 0.033867
v 0.141709 -0.045017 0.040924
v 0.141709 -0.045017 0.046762
v 0.170423 -0.045017 0.046762
v 0.170423 -0.013892 0.033867
v 0.170423 -0.013892 -0.028384
v 0.170423 -0.045017 -0.041279
v 0.170423 -0.000997 0.002742
v 0.170423 -0.076142 -0.028384
v 0.170423 -0.089038 0.002742
v 0.170423 -0.076142 0.033867
v 0.029183 -0.096364 0.002742
v 0.029183 -0.081322 0.039046
v 0.035462 -0.075920 0.033644
v 0.035462 -0.088724 0.002742
v 0.029183 0.006328 0.002742
v 0.029183 -0.008712 -0.033564
v 0.029183 -0.081322 -0.033563
v 0.029183 -0.045018 -0.048604
v 0.029688 -0.045018 -0.040964
v 0.029688 -0.075920 -0.028161
v 0.029183 -0.008712 0.039046
v 0.035462 -0.014114 0.033645
v 0.035462 -0.045017 0.046447
v 0.029183 -0.045018 0.054087
v 0.029688 -0.088724 0.002742
v 0.029688 -0.075920 0.033644
v 0.029688 -0.045018 0.046447
v 0.029688 -0.014114 0.033645
v 0.035462 -0.075920 -0.028161
v 0.029688 -0.014114 -0.028162
v 0.029688 -0.001311 0.002742
v 0.035462 -0.001311 0.002742
v 0.035462 -0.014114 -0.028162
v 0.035462 -0.045017 -0.040964
v -0.112786 -0.111171 0.045977
v 0.156004 -0.111171 0.045977
v 0.133381 -0.095277 0.045977
v -0.090162 -0.095277 0.045977
v 0.196803 -0.101322 -0.056107
v 0.196803 0.101322 -0.056107
v 0.179849 0.089411 0.045977
v 0.179849 -0.089411 0.045977
v 0.157225 0.073516 0.045977
v 0.157225 -0.073517 0.045977
v -0.136630 -0.089411 0.045977
v -0.136630 0.089411 0.045977
v -0.153584 0.101322 -0.056107
v -0.153584 -0.101322 -0.056107
v 0.156004 0.111170 0.045977
v -0.112786 0.111170 0.045977
v -0.090162 0.095276 0.045977
v 0.133381 0.095276 0.045977
v -0.090162 0.095276 -0.051321
v 0.133381 0.095276 -0.051321
v -0.114006 0.073516 0.045977
v -0.114006 -0.073517 0.045977
v -0.114006 -0.073517 -0.051321
v -0.114006 0.073516 -0.051321
v 0.172959 0.123081 -0.056107
v -0.129740 0.123081 -0.056107
v 0.133381 -0.095277 -0.051321
v -0.090162 -0.095277 -0.051321
v 0.157225 0.073516 -0.051321
v 0.157225 -0.073517 -0.051321
v -0.129740 -0.123082 -0.056107
v -0.129646 -0.104798 0.045977
v -0.146600 -0.116709 -0.056107
v -0.146600 0.116708 -0.056107
v -0.129646 0.104797 0.045977
v 0.172959 -0.123082 -0.056107
v 0.189819 -0.116709 -0.056107
v 0.172865 -0.104798 0.045977
v 0.172865 0.104797 0.045977
v 0.189819 0.116708 -0.056107
v -0.107022 0.088903 0.045977
v 0.150241 0.088903 0.045977
v 0.150241 -0.088903 0.045977
v -0.107022 -0.088903 0.045977
v 0.150241 -0.088903 -0.051321
v -0.107022 -0.088903 -0.051321
v -0.107022 0.088903 -0.051321
v 0.150241 0.088903 -0.051321
vn -1.0000 0.0000 0.0000
vn 1.0000 0.0000 -0.0000
vn 1.0000 0.0000 -0.0002
vn 0.0000 -0.0000 -1.0000
vn 0.0000 -0.7071 -0.7071
vn 0.0000 1.0000 0.0000
vn 0.0000 0.7071 0.7071
vn 0.0000 0.7071 -0.7071
vn 0.0000 -1.0000 0.0000
vn 0.0000 -0.7071 0.7071
vn 0.0000 -0.0000 1.0000
vn -0.9978 -0.0466 0.0466
vn -0.9978 -0.0660 0.0000
vn 0.9978 -0.0466 -0.0466
vn 0.9978 -0.0000 -0.0660
vn -0.9978 0.0466 0.0466
vn -0.9978 -0.0000 0.0660
vn 0.9978 -0.0466 0.0466
vn 0.9978 -0.0660 0.0000
vn 0.9978 0.0466 0.0466
vn 0.9978 -0.0000 0.0660
vn -0.9978 -0.0466 -0.0466
vn -0.9978 -0.0000 -0.0660
vn 0.9978 0.0466 -0.0466
vn 0.9978 0.0660 0.0000
vn -0.9978 0.0466 -0.0466
vn -0.9978 0.0660 0.0000
vn 0.0000 -0.0001 -1.0000
vn -0.0000 -0.0001 1.0000
vn 0.9585 0.2175 0.1846
vn 0.9631 -0.1975 0.1830
vn 0.9585 -0.2175 0.1846
vn -0.9631 0.1975 0.1830
vn -0.9585 -0.2175 0.1846
vn -0.9631 -0.1975 0.1830
vn 0.1797 -0.9837 -0.0000
vn -0.1797 -0.9837 -0.0000
vn 0.9774 0.2114 0.0000
vn 0.9774 -0.2114 -0.0000
vn -0.1930 0.9704 0.1453
vn 0.1619 0.9767 0.1409
vn 0.1930 0.9704 0.1453
vn -0.1797 0.9837 0.0000
vn 0.1797 0.9837 0.0000
vn -0.9774 -0.2114 -0.0000
vn -0.9774 0.2114 0.0000
vn -0.1930 -0.9704 0.1453
vn -0.6632 -0.7227 0.1945
vn -0.6773 -0.7093 0.1952
vn -0.6632 0.7228 0.1945
vn -0.1619 0.9767 0.1409
vn -0.9585 0.2175 0.1846
vn 0.1930 -0.9704 0.1453
vn 0.6632 -0.7227 0.1945
vn 0.1619 -0.9767 0.1409
vn 0.6632 0.7228 0.1945
vn 0.6773 0.7094 0.1952
vn -0.6839 0.7296 0.0000
vn 0.6839 0.7296 0.0000
vn 0.6839 -0.7296 -0.0000
vn -0.6839 -0.7296 -0.0000
vn -0.1619 -0.9767 0.1409
vn 0.9631 0.1975 0.1830
vn -0.6773 0.7094 0.1952
vn 0.6773 -0.7093 0.1952
usemtl DarkGrey.002
s 1
f 2//1 4//1 1//1
f 2//1 6//1 3//1
f 7//1 6//1 5//1
f 7//1 10//1 8//1
f 11//1 10//1 9//1
f 11//1 14//1 12//1
f 15//1 4//1 16//1
f 15//1 14//1 13//1
f 17//2 19//2 20//2
f 22//2 24//2 21//2
f 26//2 28//3 25//3
f 26//2 30//2 27//2
f 17//2 30//2 29//2
f 22//2 28//3 23//2
f 31//2 19//2 18//2
f 31//2 24//2 32//2
f 34//4 17//5 33//5
f 35//6 22//7 21//6
f 37//8 18//4 34//4
f 33//5 29//9 38//9
f 35//6 31//8 37//8
f 39//10 29//9 26//10
f 39//10 25//11 40//11
f 40//11 22//7 36//7
f 42//11 44//7 41//7
f 46//5 48//9 45//9
f 50//8 52//4 49//4
f 49//4 47//5 46//5
f 53//10 43//11 42//11
f 41//7 56//6 55//6
f 55//6 51//8 50//8
f 45//9 54//10 53//10
f 47//2 58//2 48//2
f 44//2 59//2 60//2
f 51//2 62//2 52//2
f 51//2 63//2 61//2
f 47//2 62//2 57//2
f 44//2 63//2 56//2
f 54//2 58//2 64//2
f 54//2 59//2 43//2
f 66//1 68//1 65//1
f 70//1 72//1 69//1
f 66//1 74//1 67//1
f 76//1 78//1 75//1
f 79//1 78//1 80//1
f 76//1 72//1 77//1
f 79//1 74//1 73//1
f 70//1 68//1 71//1
f 80//11 82//7 74//7
f 68//8 84//4 71//4
f 67//6 83//8 68//8
f 71//4 86//5 72//5
f 74//7 85//6 67//6
f 77//9 88//10 78//10
f 78//10 81//11 80//11
f 72//5 87//9 77//9
f 16//9 90//10 14//10
f 53//12 92//13 45//13
f 8//6 94//8 6//8
f 95//14 97//15 98//14
f 10//7 93//6 8//6
f 41//16 101//17 42//17
f 14//10 102//11 12//11
f 90//18 103//19 104//18
f 3//4 95//5 4//5
f 53//12 101//17 91//12
f 6//8 96//4 3//4
f 99//20 105//21 106//20
f 4//5 89//9 16//9
f 90//18 105//21 102//21
f 12//11 99//7 10//7
f 46//22 92//13 107//22
f 103//9 91//10 104//10
f 109//6 111//8 108//8
f 106//7 110//6 109//6
f 104//10 101//11 105//11
f 97//4 107//5 98//5
f 108//8 112//4 97//4
f 98//5 92//9 103//9
f 105//11 100//7 106//7
f 46//22 112//23 49//23
f 94//24 109//25 108//24
f 94//24 97//15 96//15
f 50//26 110//27 55//27
f 50//26 112//23 111//26
f 99//20 109//25 93//25
f 95//14 103//19 89//19
f 41//16 110//27 100//16
f 114//1 116//1 113//1
f 114//1 118//1 115//1
f 119//1 118//1 117//1
f 119//1 122//1 120//1
f 123//1 122//1 121//1
f 123//1 126//1 124//1
f 127//1 116//1 128//1
f 127//1 126//1 125//1
f 129//2 131//2 132//2
f 134//2 136//2 133//2
f 138//2 140//2 137//2
f 138//2 142//2 139//2
f 129//2 142//2 141//2
f 134//2 140//2 135//2
f 143//2 131//2 130//2
f 143//2 136//2 144//2
f 145//5 130//4 129//5
f 148//7 133//6 147//6
f 146//4 143//8 130//4
f 145//5 141//9 150//9
f 149//8 133//6 143//8
f 150//9 138//10 151//10
f 151//10 137//11 152//11
f 152//11 134//7 148//7
f 154//11 156//7 153//7
f 158//5 160//9 157//9
f 161//4 163//8 164//28
f 158//5 164//28 159//5
f 165//10 155//11 154//11
f 153//7 168//6 167//6
f 167//6 163//8 162//8
f 157//9 166//10 165//10
f 159//2 170//2 160//2
f 156//2 171//2 172//2
f 163//2 174//2 164//2
f 163//2 175//2 173//2
f 159//2 174//2 169//2
f 156//2 175//2 168//2
f 166//2 170//2 176//2
f 166//2 171//2 155//2
f 178//1 180//1 177//1
f 182//1 184//1 181//1
f 178//1 186//1 179//1
f 188//1 190//1 187//1
f 191//1 190//1 192//1
f 188//1 184//1 189//1
f 191//1 186//1 185//1
f 182//1 180//1 183//1
f 192//11 194//7 186//7
f 180//8 196//4 183//4
f 179//6 195//8 180//8
f 183//4 198//5 184//5
f 186//7 197//6 179//6
f 189//9 200//10 190//10
f 190//10 193//11 192//11
f 184//5 199//9 189//9
f 128//9 202//10 126//10
f 165//12 204//13 157//13
f 120//6 206//8 118//8
f 207//14 209//15 210//14
f 122//7 205//6 120//6
f 153//16 213//17 154//17
f 126//10 214//11 124//11
f 202//18 215//19 216//18
f 115//4 207//5 116//5
f 165//12 213//17 203//12
f 118//8 208//4 115//4
f 214//21 218//20 211//20
f 116//5 201//9 128//9
f 202//18 217//21 214//21
f 124//11 211//7 122//7
f 158//22 204//13 219//22
f 215//9 203//10 216//10
f 221//6 223//8 220//8
f 218//7 222//6 221//6
f 217//29 203//10 213//11
f 209//28 219//5 210//5
f 220//8 224//4 209//28
f 210//5 204//9 215//9
f 218//7 213//11 212//7
f 158//22 224//23 161//23
f 206//24 221//25 220//24
f 206//24 209//15 208//15
f 162//26 222//27 167//27
f 162//26 224//23 223//26
f 211//20 221//25 205//25
f 207//14 215//19 201//19
f 153//16 222//27 212//16
f 2//1 3//1 4//1
f 2//1 5//1 6//1
f 7//1 8//1 6//1
f 7//1 9//1 10//1
f 11//1 12//1 10//1
f 11//1 13//1 14//1
f 15//1 1//1 4//1
f 15//1 16//1 14//1
f 17//2 18//2 19//2
f 22//2 23//2 24//2
f 26//2 27//2 28//3
f 26//2 29//2 30//2
f 17//2 20//2 30//2
f 22//2 25//3 28//3
f 31//2 32//2 19//2
f 31//2 21//2 24//2
f 34//4 18//4 17//5
f 35//6 36//7 22//7
f 37//8 31//8 18//4
f 33//5 17//5 29//9
f 35//6 21//6 31//8
f 39//10 38//9 29//9
f 39//10 26//10 25//11
f 40//11 25//11 22//7
f 42//11 43//11 44//7
f 46//5 47//5 48//9
f 50//8 51//8 52//4
f 49//4 52//4 47//5
f 53//10 54//10 43//11
f 41//7 44//7 56//6
f 55//6 56//6 51//8
f 45//9 48//9 54//10
f 47//2 57//2 58//2
f 44//2 43//2 59//2
f 51//2 61//2 62//2
f 51//2 56//2 63//2
f 47//2 52//2 62//2
f 44//2 60//2 63//2
f 54//2 48//2 58//2
f 54//2 64//2 59//2
f 66//1 67//1 68//1
f 70//1 71//1 72//1
f 66//1 73//1 74//1
f 76//1 77//1 78//1
f 79//1 75//1 78//1
f 76//1 69//1 72//1
f 79//1 80//1 74//1
f 70//1 65//1 68//1
f 80//11 81//11 82//7
f 68//8 83//8 84//4
f 67//6 85//6 83//8
f 71//4 84//4 86//5
f 74//7 82//7 85//6
f 77//9 87//9 88//10
f 78//10 88//10 81//11
f 72//5 86//5 87//9
f 16//9 89//9 90//10
f 53//12 91//12 92//13
f 8//6 93//6 94//8
f 95//14 96//15 97//15
f 10//7 99//7 93//6
f 41//16 100//16 101//17
f 14//10 90//10 102//11
f 90//18 89//19 103//19
f 3//4 96//4 95//5
f 53//12 42//17 101//17
f 6//8 94//8 96//4
f 99//20 102//21 105//21
f 4//5 95//5 89//9
f 90//18 104//18 105//21
f 12//11 102//11 99//7
f 46//22 45//13 92//13
f 103//9 92//9 91//10
f 109//6 110//6 111//8
f 106//7 100//7 110//6
f 104//10 91//10 101//11
f 97//4 112//4 107//5
f 108//8 111//8 112//4
f 98//5 107//5 92//9
f 105//11 101//11 100//7
f 46//22 107//22 112//23
f 94//24 93//25 109//25
f 94//24 108//24 97//15
f 50//26 111//26 110//27
f 50//26 49//23 112//23
f 99//20 106//20 109//25
f 95//14 98//14 103//19
f 41//16 55//27 110//27
f 114//1 115//1 116//1
f 114//1 117//1 118//1
f 119//1 120//1 118//1
f 119//1 121//1 122//1
f 123//1 124//1 122//1
f 123//1 125//1 126//1
f 127//1 113//1 116//1
f 127//1 128//1 126//1
f 129//2 130//2 131//2
f 134//2 135//2 136//2
f 138//2 139//2 140//2
f 138//2 141//2 142//2
f 129//2 132//2 142//2
f 134//2 137//2 140//2
f 143//2 144//2 131//2
f 143//2 133//2 136//2
f 145//5 146//4 130//4
f 148//7 134//7 133//6
f 146//4 149//8 143//8
f 145//5 129//5 141//9
f 149//8 147//6 133//6
f 150//9 141//9 138//10
f 151//10 138//10 137//11
f 152//11 137//11 134//7
f 154//11 155//11 156//7
f 158//5 159//5 160//9
f 161//4 162//8 163//8
f 158//5 161//4 164//28
f 165//10 166//10 155//11
f 153//7 156//7 168//6
f 167//6 168//6 163//8
f 157//9 160//9 166//10
f 159//2 169//2 170//2
f 156//2 155//2 171//2
f 163//2 173//2 174//2
f 163//2 168//2 175//2
f 159//2 164//2 174//2
f 156//2 172//2 175//2
f 166//2 160//2 170//2
f 166//2 176//2 171//2
f 178//1 179//1 180//1
f 182//1 183//1 184//1
f 178//1 185//1 186//1
f 188//1 189//1 190//1
f 191//1 187//1 190//1
f 188//1 181//1 184//1
f 191//1 192//1 186//1
f 182//1 177//1 180//1
f 192//11 193//11 194//7
f 180//8 195//8 196//4
f 179//6 197//6 195//8
f 183//4 196//4 198//5
f 186//7 194//7 197//6
f 189//9 199//9 200//10
f 190//10 200//10 193//11
f 184//5 198//5 199//9
f 128//9 201//9 202//10
f 165//12 203//12 204//13
f 120//6 205//6 206//8
f 207//14 208//15 209//15
f 122//7 211//7 205//6
f 153//16 212//16 213//17
f 126//10 202//10 214//11
f 202//18 201//19 215//19
f 115//4 208//4 207//5
f 165//12 154//17 213//17
f 118//8 206//8 208//4
f 214//21 217//21 218//20
f 116//5 207//5 201//9
f 202//18 216//18 217//21
f 124//11 214//11 211//7
f 158//22 157//13 204//13
f 215//9 204//9 203//10
f 221//6 222//6 223//8
f 218//7 212//7 222//6
f 217//29 216//10 203//10
f 209//28 224//4 219//5
f 220//8 223//8 224//4
f 210//5 219//5 204//9
f 218//7 217//29 213//11
f 158//22 219//22 224//23
f 206//24 205//25 221//25
f 206//24 220//24 209//15
f 162//26 223//26 222//27
f 162//26 161//23 224//23
f 211//20 218//20 221//25
f 207//14 210//14 215//19
f 153//16 167//27 222//27
usemtl Accent.002
f 23//7 11//11 9//7
f 30//9 13//10 27//10
f 20//5 2//4 1//5
f 32//8 2//4 19//4
f 23//7 7//6 24//6
f 24//6 5//8 32//8
f 20//5 15//9 30//9
f 27//10 11//11 28//11
f 60//7 66//6 63//6
f 58//9 75//10 64//10
f 64//10 79//11 59//11
f 57//5 76//9 58//9
f 59//11 73//7 60//7
f 61//8 70//4 62//4
f 63//6 65//8 61//8
f 62//4 69//5 57//5
f 135//7 123//11 121//7
f 142//9 125//10 139//10
f 131//4 113//5 132//5
f 144//8 114//4 131//4
f 135//7 119//6 136//6
f 136//6 117//8 144//8
f 132//5 127//9 142//9
f 140//11 125//10 123//11
f 172//7 178//6 175//6
f 170//9 187//10 176//10
f 176//10 191//11 171//11
f 169//5 188//9 170//9
f 171//11 185//7 172//7
f 173//8 182//4 174//4
f 175//6 177//8 173//8
f 174//4 181//5 169//5
f 23//7 28//11 11//11
f 30//9 15//9 13//10
f 20//5 19//4 2//4
f 32//8 5//8 2//4
f 23//7 9//7 7//6
f 24//6 7//6 5//8
f 20//5 1//5 15//9
f 27//10 13//10 11//11
f 60//7 73//7 66//6
f 58//9 76//9 75//10
f 64//10 75//10 79//11
f 57//5 69//5 76//9
f 59//11 79//11 73//7
f 61//8 65//8 70//4
f 63//6 66//6 65//8
f 62//4 70//4 69//5
f 135//7 140//11 123//11
f 142//9 127//9 125//10
f 131//4 114//4 113//5
f 144//8 117//8 114//4
f 135//7 121//7 119//6
f 136//6 119//6 117//8
f 132//5 113//5 127//9
f 140//11 139//10 125//10
f 172//7 185//7 178//6
f 170//9 188//9 187//10
f 176//10 187//10 191//11
f 169//5 181//5 188//9
f 171//11 191//11 185//7
f 173//8 177//8 182//4
f 175//6 178//6 177//8
f 174//4 182//4 181//5
usemtl DarkAccent.001
f 226//11 228//11 225//11
f 230//30 232//31 229//32
f 232//11 233//11 234//11
f 236//33 238//34 235//35
f 239//11 241//11 242//11
f 241//36 244//37 242//37
f 246//38 248//39 245//39
f 250//40 239//41 249//42
f 235//11 245//11 236//11
f 227//43 252//44 228//44
f 233//45 254//46 234//46
f 255//47 256//48 257//49
f 256//48 238//34 257//49
f 250//40 259//50 240//51
f 259//50 237//52 236//33
f 260//53 262//54 226//55
f 262//54 229//32 232//31
f 249//42 263//56 264//57
f 263//56 230//30 264//57
f 236//11 265//11 259//11
f 265//11 240//11 259//11
f 231//11 266//11 233//11
f 266//11 239//11 242//11
f 226//11 267//11 227//11
f 267//11 232//11 234//11
f 225//11 268//11 256//11
f 268//11 235//11 256//11
f 254//46 267//58 234//46
f 269//58 227//43 267//58
f 246//38 270//59 247//38
f 268//59 252//44 270//59
f 241//36 271//60 243//36
f 265//60 248//39 271//60
f 233//45 272//61 253//45
f 266//61 244//37 272//61
f 255//47 226//55 225//62
f 226//11 227//11 228//11
f 230//30 231//63 232//31
f 232//11 231//11 233//11
f 236//33 237//52 238//34
f 239//11 240//11 241//11
f 241//36 243//36 244//37
f 246//38 247//38 248//39
f 250//40 240//51 239//41
f 235//11 246//11 245//11
f 227//43 251//43 252//44
f 233//45 253//45 254//46
f 255//47 225//62 256//48
f 256//48 235//35 238//34
f 250//40 258//64 259//50
f 259//50 258//64 237//52
f 260//53 261//65 262//54
f 262//54 261//65 229//32
f 249//42 239//41 263//56
f 263//56 231//63 230//30
f 236//11 245//11 265//11
f 265//11 241//11 240//11
f 231//11 263//11 266//11
f 266//11 263//11 239//11
f 226//11 262//11 267//11
f 267//11 262//11 232//11
f 225//11 228//11 268//11
f 268//11 246//11 235//11
f 254//46 269//58 267//58
f 269//58 251//43 227//43
f 246//38 268//59 270//59
f 268//59 228//44 252//44
f 241//36 265//60 271//60
f 265//60 245//39 248//39
f 233//45 266//61 272//61
f 266//61 242//37 244//37
f 255//47 260//53 226//55
usemtl Black.001
f 251//11 253//11 244//11
f 252//11 251//11 244//11
f 251//11 269//11 254//11
f 253//11 251//11 254//11
f 253//11 272//11 244//11
f 244//11 243//11 252//11
f 243//11 271//11 248//11
f 252//11 243//11 247//11
f 248//11 247//11 243//11
f 247//11 270//11 252//11
