# Blender v2.93.5 OBJ File: ''
# www.blender.org
mtllib DoorSingle_Wall_SideA.mtl
o DoorSingle_Wall_SideA_Plane.313
v -0.755750 0.000052 0.045566
v -0.755750 0.000052 -0.275057
v -0.755750 0.875439 -0.275057
v -0.755750 0.852513 -0.090513
v -0.755750 0.777114 0.045566
v -0.961431 0.777113 0.045566
v -0.961430 0.000052 0.045566
v -0.961431 0.852513 -0.090513
v -0.961431 0.875439 -0.275057
v -0.961430 0.000052 -0.275057
v -0.755750 1.186023 -0.275057
v -0.755750 1.186023 -0.128405
v -0.755750 1.148131 -0.090513
v -0.961431 1.186023 -0.275057
v -0.961431 1.186023 -0.128405
v -0.961431 1.148131 -0.090513
v -2.000000 3.766714 0.255657
v -0.846202 3.766714 0.255656
v -0.846202 3.859771 0.255656
v -2.000000 3.859771 0.255657
v -0.846202 3.766714 0.227142
v -0.846202 3.859771 0.227142
v -0.831724 3.398779 -0.206424
v -0.831724 3.703513 0.255656
v -2.000000 3.703513 0.255657
v -2.000000 3.398779 -0.206424
v -0.846202 4.430894 0.255656
v -2.000000 4.430894 0.255657
v -0.549427 2.901515 -0.206425
v 0.000000 2.901515 -0.206425
v 0.000000 3.398779 -0.206424
v -0.549427 3.398779 -0.206424
v 0.000000 3.859771 0.255656
v 0.000000 4.430894 0.255656
v 0.000000 3.766714 0.227142
v 0.000000 3.859771 0.227142
v 0.000000 3.766714 0.255656
v 0.000000 3.703513 0.255656
v -0.549427 3.703513 0.255656
v -2.000000 0.741229 0.000000
v -0.831724 0.741229 0.000000
v -0.831724 0.853536 -0.206425
v -2.000000 0.853536 -0.206425
v -0.831724 2.620514 -0.206425
v -2.000000 2.620514 -0.206425
v -0.831724 2.901515 -0.206425
v -2.000000 2.901515 -0.206425
v -2.000000 0.120513 -0.021995
v -0.831724 0.120513 -0.021995
v -0.831724 0.165472 -0.021995
v -2.000000 0.165472 -0.021995
v -2.000000 0.165472 0.000000
v -0.831724 0.165472 0.000000
v 0.755750 0.000052 0.045566
v 0.755750 0.777114 0.045566
v 0.755750 0.852513 -0.090513
v 0.755750 0.875439 -0.275057
v 0.755750 0.000052 -0.275057
v 0.961431 0.777113 0.045566
v 0.961430 0.000052 0.045566
v 0.961431 0.852513 -0.090513
v 0.961430 0.000052 -0.275057
v 0.961431 0.875439 -0.275057
v 0.755750 1.148131 -0.090513
v 0.755750 1.186023 -0.128405
v 0.755750 1.186023 -0.275057
v 0.961431 1.186023 -0.275057
v 0.961431 1.186023 -0.128405
v 0.961431 1.148131 -0.090513
v 2.000000 3.766714 0.255657
v 2.000000 3.859771 0.255657
v 0.846202 3.859771 0.255656
v 0.846202 3.766714 0.255656
v 0.846202 3.859771 0.227142
v 0.846202 3.766714 0.227142
v 0.831724 3.398779 -0.206424
v 2.000000 3.398779 -0.206424
v 2.000000 3.703513 0.255657
v 0.831724 3.703513 0.255656
v 2.000000 4.430894 0.255657
v 0.846202 4.430894 0.255656
v 0.549427 2.901515 -0.206425
v 0.549427 3.398779 -0.206424
v 0.549427 3.703513 0.255656
v 2.000000 0.741229 0.000000
v 2.000000 0.853536 -0.206425
v 0.831724 0.853536 -0.206425
v 0.831724 0.741229 0.000000
v 2.000000 2.620514 -0.206425
v 0.831724 2.620514 -0.206425
v 2.000000 2.901515 -0.206425
v 0.831724 2.901515 -0.206425
v 2.000000 0.120513 -0.021995
v 2.000000 0.165472 -0.021995
v 0.831724 0.165472 -0.021995
v 0.831724 0.120513 -0.021995
v 2.000000 0.165472 0.000000
v 0.831724 0.165472 0.000000
v -0.575238 2.939707 -0.031323
v 0.000000 2.939707 -0.031323
v 0.000000 2.939707 -0.967805
v -0.575238 2.939707 -0.967805
v 0.000000 2.865799 -0.998099
v 0.000000 2.791892 -0.998099
v -0.478305 2.791892 -0.998099
v -0.526771 2.865799 -0.998099
v -0.478305 2.791892 0.009929
v 0.000000 2.791892 0.009929
v -0.888998 0.044258 -0.031323
v -0.888998 0.044258 -0.967805
v -0.888998 -0.006088 -0.967805
v -0.888998 -0.006088 -0.031323
v -0.803400 0.044258 0.009929
v -0.742349 0.044258 0.009929
v -0.742349 2.537161 0.009929
v -0.803400 2.573862 0.009929
v -0.518659 2.853429 0.009929
v 0.000000 2.853428 0.009929
v -0.888998 2.625319 -0.967805
v -0.888998 2.625319 -0.031323
v -0.742349 2.537161 -0.998099
v -0.832304 2.591237 -0.967805
v -0.537764 2.882562 -0.967805
v -0.815673 0.044258 -0.998099
v -0.742349 0.044258 -0.998099
v -0.742349 -0.006088 -0.998099
v -0.815673 -0.006088 -0.998099
v -0.826285 2.587619 -0.031323
v -0.533785 2.876495 -0.031323
v 0.000000 2.876495 -0.031323
v -0.826285 0.044258 -0.031323
v -2.000000 3.382576 -0.234990
v -2.000000 3.348314 -0.121057
v 0.000000 3.348314 -0.121057
v 0.000000 3.382576 -0.234990
v -2.000000 3.111566 -0.121057
v 0.000000 3.111566 -0.121057
v -2.000000 3.077305 -0.237249
v 0.000000 3.077305 -0.237249
v -2.000000 0.909986 -0.121058
v -2.000000 0.875724 -0.237250
v -0.818843 0.875724 -0.237250
v -0.818843 0.909986 -0.121058
v -2.000000 1.146734 -0.121058
v -0.818843 1.146734 -0.121058
v -2.000000 1.180995 -0.234991
v -0.818843 1.180995 -0.234991
v -0.832304 0.044258 -0.967805
v -0.832304 -0.006088 -0.967805
v -0.815673 2.581240 -0.998099
v 0.000000 2.882562 -0.967805
v 0.575238 2.939707 -0.031323
v 0.575238 2.939707 -0.967805
v 0.526771 2.865799 -0.998099
v 0.478305 2.791892 -0.998099
v 0.478305 2.791892 0.009929
v 0.888998 0.044258 -0.031323
v 0.888998 -0.006088 -0.031323
v 0.888998 -0.006088 -0.967805
v 0.888998 0.044258 -0.967805
v 0.803400 0.044258 0.009929
v 0.803400 2.573862 0.009929
v 0.742349 2.537161 0.009929
v 0.742349 0.044258 0.009929
v 0.518659 2.853429 0.009929
v 0.888998 2.625319 -0.967805
v 0.888998 2.625319 -0.031323
v 0.742349 2.537161 -0.998099
v 0.832304 2.591237 -0.967805
v 0.537764 2.882562 -0.967805
v 0.815673 0.044258 -0.998099
v 0.815673 -0.006088 -0.998099
v 0.742349 -0.006088 -0.998099
v 0.742349 0.044258 -0.998099
v 0.826285 2.587619 -0.031323
v 0.533785 2.876495 -0.031323
v 0.826285 0.044258 -0.031323
v 2.000000 3.382576 -0.234990
v 2.000000 3.348314 -0.121057
v 2.000000 3.111566 -0.121057
v 2.000000 3.077305 -0.237249
v 2.000000 0.909986 -0.121058
v 0.818843 0.909986 -0.121058
v 0.818843 0.875724 -0.237250
v 2.000000 0.875724 -0.237250
v 2.000000 1.146734 -0.121058
v 0.818843 1.146734 -0.121058
v 2.000000 1.180995 -0.234991
v 0.818843 1.180995 -0.234991
v 0.832304 0.044258 -0.967805
v 0.832304 -0.006088 -0.967805
v 0.815673 2.581240 -0.998099
v -0.826285 -0.006088 -0.031323
v -0.803400 -0.006088 0.009929
v -0.742349 -0.006088 0.009929
v 0.826285 -0.006088 -0.031323
v 0.803400 -0.006088 0.009929
v 0.742349 -0.006088 0.009929
v -0.493394 3.519044 0.006626
v 0.492157 3.519044 0.006626
v 0.492157 3.557718 0.065268
v -0.493394 3.557718 0.065268
v -0.831724 0.120513 0.000000
v -2.000000 0.120513 0.000000
v -2.000000 0.000000 0.000000
v -0.831724 0.000000 0.000000
v 0.831724 0.120513 0.000000
v 2.000000 0.120513 0.000000
v 2.000000 0.000000 0.000000
v 0.831724 0.000000 0.000000
v 0.576394 3.580112 0.120585
v -0.577631 3.580112 0.120585
v -0.525202 3.559463 0.089275
v 0.523965 3.559463 0.089275
v -0.577631 3.610366 0.100633
v -0.577631 3.503825 -0.060919
v -0.577631 3.473571 -0.040967
v 0.576394 3.503825 -0.060919
v 0.576394 3.610366 0.100633
v 0.576394 3.473571 -0.040967
v 0.523965 3.495031 -0.008427
v -0.525202 3.495031 -0.008427
vn 1.0000 0.0000 0.0000
vn 0.0000 -0.0000 1.0000
vn -0.0000 0.8747 0.4847
vn -1.0000 -0.0000 -0.0000
vn 0.0000 0.0000 -1.0000
vn 0.0000 1.0000 0.0000
vn 0.0000 0.7071 0.7071
vn 0.0000 -0.8348 0.5505
vn 0.0000 -1.0000 0.0000
vn 0.0000 0.8784 0.4779
vn -0.7078 0.7064 0.0000
vn 0.6943 -0.7197 -0.0000
vn -0.5906 0.5998 0.5398
vn -0.5907 0.5998 0.5398
vn 0.0000 0.8728 0.4880
vn 0.0000 0.8728 0.4881
vn -0.8745 0.0000 0.4851
vn 0.0000 0.9576 0.2880
vn 0.0000 -0.9592 0.2828
vn -0.8766 0.0000 -0.4812
vn 0.0000 0.8750 -0.4842
vn -0.5931 0.6009 -0.5358
vn 0.7078 0.7064 0.0000
vn -0.6943 -0.7197 -0.0000
vn 0.5907 0.5998 0.5398
vn 0.5906 0.5998 0.5398
vn 0.8745 -0.0000 0.4851
vn 0.8766 0.0000 -0.4812
vn 0.5931 0.6009 -0.5358
vn 0.0000 -0.8348 0.5506
vn 0.0000 -0.5506 -0.8348
vn 0.0000 -0.5505 -0.8348
vn 0.0000 0.5505 0.8348
vn 0.0000 0.5506 0.8348
vn -0.3468 -0.7830 0.5164
vn -0.3467 -0.7830 0.5164
vn 0.0000 -0.5311 0.8473
vn 0.0000 -0.9974 0.0725
vn 0.3468 -0.7830 0.5164
vn 0.3467 -0.7830 0.5164
usemtl Main.002
s 1
f 2//1 4//1 5//1
f 6//2 1//2 5//2
f 5//3 8//3 6//3
f 8//4 9//4 10//4
f 11//1 12//1 13//1
f 9//5 11//5 3//5
f 11//6 15//6 12//6
f 14//4 16//4 15//4
f 15//7 13//7 12//7
f 4//2 16//2 8//2
f 3//5 10//5 9//5
f 18//2 20//2 17//2
f 18//1 22//1 19//1
f 24//8 26//8 23//8
f 19//2 28//2 20//2
f 30//2 32//2 29//2
f 34//2 19//2 33//2
f 36//2 21//2 35//2
f 35//6 18//6 37//6
f 18//2 24//2 39//2
f 33//9 22//9 36//9
f 41//10 43//10 40//10
f 42//2 45//2 43//2
f 44//2 47//2 45//2
f 49//2 51//2 48//2
f 51//9 53//9 52//9
f 53//2 40//2 52//2
f 46//2 26//2 47//2
f 39//8 23//8 32//8
f 38//8 32//8 31//8
f 44//2 29//2 46//2
f 29//2 23//2 46//2
f 56//4 57//4 58//4
f 59//2 54//2 60//2
f 61//3 55//3 59//3
f 62//1 63//1 61//1
f 64//4 66//4 57//4
f 66//5 63//5 57//5
f 68//6 66//6 65//6
f 67//1 68//1 69//1
f 64//7 68//7 65//7
f 69//2 56//2 61//2
f 62//5 57//5 63//5
f 71//2 73//2 70//2
f 74//4 73//4 72//4
f 77//8 79//8 76//8
f 80//2 72//2 71//2
f 83//2 30//2 82//2
f 72//2 34//2 33//2
f 75//2 36//2 35//2
f 73//6 35//6 37//6
f 84//2 79//2 73//2
f 74//9 33//9 36//9
f 86//10 88//10 85//10
f 89//2 87//2 86//2
f 91//2 90//2 89//2
f 94//2 96//2 93//2
f 98//9 94//9 97//9
f 85//2 98//2 97//2
f 77//2 92//2 91//2
f 76//8 84//8 83//8
f 83//8 38//8 31//8
f 90//2 92//2 82//2
f 76//2 82//2 92//2
f 5//1 1//1 2//1
f 2//1 3//1 4//1
f 6//2 7//2 1//2
f 5//3 4//3 8//3
f 7//4 6//4 10//4
f 6//4 8//4 10//4
f 13//1 4//1 3//1
f 3//1 11//1 13//1
f 9//5 14//5 11//5
f 11//6 14//6 15//6
f 14//4 9//4 16//4
f 9//4 8//4 16//4
f 15//7 16//7 13//7
f 4//2 13//2 16//2
f 3//5 2//5 10//5
f 18//2 19//2 20//2
f 18//1 21//1 22//1
f 24//8 25//8 26//8
f 19//2 27//2 28//2
f 30//2 31//2 32//2
f 34//2 27//2 19//2
f 36//2 22//2 21//2
f 35//6 21//6 18//6
f 39//2 38//2 37//2
f 18//2 17//2 25//2
f 39//2 37//2 18//2
f 18//2 25//2 24//2
f 33//9 19//9 22//9
f 41//10 42//10 43//10
f 42//2 44//2 45//2
f 44//2 46//2 47//2
f 49//2 50//2 51//2
f 51//9 50//9 53//9
f 53//2 41//2 40//2
f 46//2 23//2 26//2
f 39//8 24//8 23//8
f 38//8 39//8 32//8
f 29//2 32//2 23//2
f 58//4 54//4 55//4
f 55//4 56//4 58//4
f 59//2 55//2 54//2
f 61//3 56//3 55//3
f 61//1 59//1 62//1
f 59//1 60//1 62//1
f 57//4 56//4 64//4
f 64//4 65//4 66//4
f 66//5 67//5 63//5
f 68//6 67//6 66//6
f 61//1 63//1 69//1
f 63//1 67//1 69//1
f 64//7 69//7 68//7
f 69//2 64//2 56//2
f 62//5 58//5 57//5
f 71//2 72//2 73//2
f 74//4 75//4 73//4
f 77//8 78//8 79//8
f 80//2 81//2 72//2
f 83//2 31//2 30//2
f 72//2 81//2 34//2
f 75//2 74//2 36//2
f 73//6 75//6 35//6
f 37//2 38//2 84//2
f 79//2 78//2 73//2
f 78//2 70//2 73//2
f 37//2 84//2 73//2
f 74//9 72//9 33//9
f 86//10 87//10 88//10
f 89//2 90//2 87//2
f 91//2 92//2 90//2
f 94//2 95//2 96//2
f 98//9 95//9 94//9
f 85//2 88//2 98//2
f 77//2 76//2 92//2
f 76//8 79//8 84//8
f 83//8 84//8 38//8
f 76//2 83//2 82//2
usemtl Accent.004
f 100//6 102//6 99//6
f 103//5 105//5 106//5
f 105//9 108//9 107//9
f 110//4 112//4 109//4
f 113//2 115//2 116//2
f 107//2 118//2 117//2
f 120//11 102//11 119//11
f 107//12 121//12 105//12
f 122//5 102//5 123//5
f 115//2 117//2 116//2
f 125//5 127//5 124//5
f 116//13 129//13 128//14
f 117//15 130//16 129//15
f 131//17 116//17 128//17
f 109//2 128//2 120//2
f 129//2 100//2 99//2
f 128//2 99//2 120//2
f 133//18 135//18 132//18
f 136//2 134//2 133//2
f 138//19 137//19 136//19
f 141//19 143//19 140//19
f 140//2 145//2 144//2
f 144//18 147//18 146//18
f 124//20 149//20 148//20
f 121//5 106//5 105//5
f 151//21 106//21 123//21
f 101//5 123//5 102//5
f 148//5 111//5 110//5
f 150//22 123//22 106//22
f 153//6 100//6 152//6
f 103//5 155//5 104//5
f 108//9 155//9 156//9
f 158//1 160//1 157//1
f 161//2 163//2 164//2
f 118//2 156//2 165//2
f 153//23 167//23 166//23
f 168//24 156//24 155//24
f 169//5 153//5 166//5
f 165//2 163//2 162//2
f 172//5 174//5 171//5
f 176//25 162//26 175//25
f 130//16 165//15 176//15
f 177//27 162//27 161//27
f 157//2 175//2 177//2
f 100//2 176//2 152//2
f 152//2 175//2 167//2
f 135//18 179//18 178//18
f 134//2 180//2 179//2
f 137//19 181//19 180//19
f 183//19 185//19 182//19
f 187//2 182//2 186//2
f 189//18 186//18 188//18
f 191//28 171//28 190//28
f 168//5 154//5 192//5
f 151//21 154//21 103//21
f 101//5 170//5 151//5
f 159//5 190//5 160//5
f 192//29 170//29 169//29
f 122//5 110//5 119//5
f 150//20 148//20 122//20
f 193//2 109//2 112//2
f 194//17 131//17 193//17
f 121//5 124//5 150//5
f 114//1 121//1 115//1
f 195//2 113//2 194//2
f 119//4 109//4 120//4
f 160//5 169//5 166//5
f 190//28 192//28 169//28
f 157//2 196//2 158//2
f 177//27 197//27 196//27
f 171//5 168//5 192//5
f 168//4 164//4 163//4
f 161//2 198//2 197//2
f 157//1 166//1 167//1
f 114//6 174//6 125//6
f 198//2 114//2 195//2
f 173//5 125//5 174//5
f 100//6 101//6 102//6
f 103//5 104//5 105//5
f 105//9 104//9 108//9
f 110//4 111//4 112//4
f 113//2 114//2 115//2
f 107//2 108//2 118//2
f 120//11 99//11 102//11
f 107//12 115//12 121//12
f 122//5 119//5 102//5
f 115//2 107//2 117//2
f 125//5 126//5 127//5
f 116//13 117//13 129//13
f 117//15 118//16 130//16
f 131//17 113//17 116//17
f 109//2 131//2 128//2
f 129//2 130//2 100//2
f 128//2 129//2 99//2
f 133//18 134//18 135//18
f 136//2 137//2 134//2
f 138//19 139//19 137//19
f 141//19 142//19 143//19
f 140//2 143//2 145//2
f 144//18 145//18 147//18
f 124//20 127//20 149//20
f 121//5 150//5 106//5
f 151//21 103//21 106//21
f 101//5 151//5 123//5
f 148//5 149//5 111//5
f 150//22 122//22 123//22
f 153//6 101//6 100//6
f 103//5 154//5 155//5
f 108//9 104//9 155//9
f 158//1 159//1 160//1
f 161//2 162//2 163//2
f 118//2 108//2 156//2
f 153//23 152//23 167//23
f 168//24 163//24 156//24
f 169//5 170//5 153//5
f 165//2 156//2 163//2
f 172//5 173//5 174//5
f 176//25 165//26 162//26
f 130//16 118//16 165//15
f 177//27 175//27 162//27
f 157//2 167//2 175//2
f 100//2 130//2 176//2
f 152//2 176//2 175//2
f 135//18 134//18 179//18
f 134//2 137//2 180//2
f 137//19 139//19 181//19
f 183//19 184//19 185//19
f 187//2 183//2 182//2
f 189//18 187//18 186//18
f 191//28 172//28 171//28
f 168//5 155//5 154//5
f 151//21 170//21 154//21
f 101//5 153//5 170//5
f 159//5 191//5 190//5
f 192//29 154//29 170//29
f 122//5 148//5 110//5
f 150//20 124//20 148//20
f 193//2 131//2 109//2
f 194//17 113//17 131//17
f 121//5 125//5 124//5
f 114//1 125//1 121//1
f 195//2 114//2 113//2
f 119//4 110//4 109//4
f 160//5 190//5 169//5
f 190//28 171//28 192//28
f 157//2 177//2 196//2
f 177//27 161//27 197//27
f 171//5 174//5 168//5
f 168//4 174//4 164//4
f 161//2 164//2 198//2
f 157//1 160//1 166//1
f 114//6 164//6 174//6
f 198//2 164//2 114//2
f 173//5 126//5 125//5
usemtl Light.001
f 200//8 202//30 199//30
f 200//8 201//8 202//30
usemtl DarkGrey.004
f 10//9 1//9 7//9
f 49//6 204//6 203//6
f 206//2 204//2 205//2
f 54//9 62//9 60//9
f 208//6 96//6 207//6
f 208//2 210//2 209//2
f 211//8 213//8 214//8
f 216//4 212//4 215//4
f 218//1 211//1 220//1
f 218//31 217//32 216//32
f 215//33 211//34 219//34
f 214//35 200//35 221//36
f 212//8 222//8 213//8
f 211//8 221//8 220//8
f 220//8 222//8 217//8
f 221//37 199//37 222//37
f 213//38 201//38 214//38
f 213//39 199//39 202//39
f 10//9 2//9 1//9
f 49//6 48//6 204//6
f 206//2 203//2 204//2
f 54//9 58//9 62//9
f 208//6 93//6 96//6
f 208//2 207//2 210//2
f 211//8 212//8 213//8
f 216//4 217//4 212//4
f 218//1 219//1 211//1
f 218//31 220//31 217//32
f 215//33 212//33 211//34
f 214//35 201//35 200//35
f 212//8 217//8 222//8
f 211//8 214//8 221//8
f 220//8 221//8 222//8
f 221//37 200//37 199//37
f 213//38 202//38 201//38
f 213//39 222//40 199//39
