# Blender v2.93.5 OBJ File: ''
# www.blender.org
mtllib FloorTile_Side.mtl
o FloorTile_Side_Plane.001
v -1.000000 -0.000000 0.789926
v -1.000000 -0.000000 1.000000
v -1.000000 0.039729 1.000000
v -1.000000 0.039729 0.789926
v -0.851408 0.000000 -1.000000
v -1.000000 0.000000 -1.000000
v -1.000000 0.039729 -1.000000
v -0.851408 0.039729 -1.000000
v -1.000000 0.000000 -0.444794
v -1.000000 0.000000 -0.402469
v -1.000000 0.039729 -0.402469
v -1.000000 0.039729 -0.444794
v -1.000000 -0.000000 0.748192
v -1.000000 0.039729 0.748192
v -0.851408 0.039729 0.789926
v -0.833562 0.003127 0.789926
v -0.833562 0.003127 0.748192
v -0.851408 0.039729 0.748192
v -0.851408 0.039729 1.000000
v -0.833562 0.003127 1.000000
v -0.851408 0.039729 -0.402469
v -0.833562 0.003127 -0.402469
v -0.833562 0.003127 -0.444794
v -0.851408 0.039729 -0.444794
v -0.851408 -0.000000 1.000000
v -0.833562 -0.000000 1.000000
v -0.833562 0.003127 -1.000000
v -0.833562 0.000000 -1.000000
v -0.766753 0.029167 -0.846493
v -0.890084 0.029167 -0.846493
v -0.890084 0.029167 -0.797244
v -0.766753 0.029167 -0.797244
v -0.890084 -0.020181 -0.797244
v -0.727565 -0.020181 -0.797244
v -0.727565 -0.020181 -0.846493
v -0.890084 -0.020181 -0.846493
v -0.766753 0.029167 -0.514556
v -0.890084 0.029167 -0.514556
v -0.890084 0.029167 -0.465307
v -0.766753 0.029167 -0.465307
v -0.890084 -0.020181 -0.465307
v -0.727565 -0.020181 -0.465307
v -0.727565 -0.020181 -0.514556
v -0.890084 -0.020181 -0.514556
v -0.766753 0.029167 -0.182619
v -0.890084 0.029167 -0.182619
v -0.890084 0.029167 -0.133370
v -0.766753 0.029167 -0.133370
v -0.890084 -0.020181 -0.133370
v -0.727565 -0.020181 -0.133370
v -0.727565 -0.020181 -0.182619
v -0.890084 -0.020181 -0.182619
v -0.766753 0.029167 0.149318
v -0.890084 0.029167 0.149318
v -0.890084 0.029167 0.198567
v -0.766753 0.029167 0.198567
v -0.890084 -0.020181 0.198567
v -0.727565 -0.020181 0.198567
v -0.727565 -0.020181 0.149318
v -0.890084 -0.020181 0.149318
v -0.766753 0.029167 0.481255
v -0.890084 0.029167 0.481255
v -0.890084 0.029167 0.530504
v -0.766753 0.029167 0.530504
v -0.890084 -0.020181 0.530504
v -0.727565 -0.020181 0.530504
v -0.727565 -0.020181 0.481255
v -0.890084 -0.020181 0.481255
v -0.766753 0.029167 0.813192
v -0.890084 0.029167 0.813192
v -0.890084 0.029167 0.862441
v -0.766753 0.029167 0.862441
v -0.890084 -0.020181 0.862441
v -0.727565 -0.020181 0.862441
v -0.727565 -0.020181 0.813192
v -0.890084 -0.020181 0.813192
v 0.685369 0.048272 0.521852
v 0.724740 0.048272 0.521852
v 0.724740 0.048272 -0.176129
v 0.685369 0.048272 -0.176129
v 0.685369 0.030952 0.521852
v 0.724740 0.030952 0.521852
v 0.685369 0.030952 -0.176129
v 0.724740 0.030952 -0.176129
v -0.613790 0.003127 -0.444794
v -0.613790 0.003127 -1.000000
v -0.737797 0.003127 0.748192
v -0.737797 0.003127 -0.402469
v -0.613790 0.003127 1.000000
v -0.613790 0.003127 0.789925
v -0.274022 -0.000000 1.000000
v -0.256347 -0.000000 1.000000
v -0.256347 0.041344 1.000000
v -0.274022 0.013947 1.000000
v 1.000000 0.000000 -0.444794
v 1.000000 0.000000 -1.000000
v 1.000000 0.015330 -1.000000
v 1.000000 0.015330 -0.431607
v 0.796375 0.000000 -1.000000
v -0.256347 0.000000 -1.000000
v -0.256347 0.041344 -1.000000
v 0.796375 0.041344 -1.000000
v -0.274022 0.013947 -0.444794
v -0.256347 0.041344 -0.431607
v -0.274022 0.013947 -1.000000
v -0.274022 0.000000 -1.000000
v -0.405262 0.013947 0.748192
v -0.387588 0.041344 0.736713
v -0.387588 0.041344 -0.390990
v -0.405262 0.013947 -0.402469
v 1.000000 -0.000000 0.748192
v 1.000000 0.000000 -0.402469
v 1.000000 0.015330 -0.390990
v 1.000000 0.015330 0.736713
v 1.000000 -0.000000 1.000000
v 1.000000 -0.000000 0.776150
v 1.000000 0.015330 0.783626
v 1.000000 0.015330 1.000000
v -0.256347 0.041344 0.783626
v -0.274022 0.013947 0.789925
v 0.796375 0.041344 0.783626
v 0.770054 0.041344 0.736713
v 0.796375 0.041344 1.000000
v 0.770054 0.041344 -0.390990
v 0.796375 0.041344 -0.431607
v 0.813101 0.000000 -1.000000
v 0.813101 0.015330 -1.000000
v 0.796375 -0.000000 1.000000
v 0.813101 0.015330 0.783626
v 0.786779 0.015330 0.736713
v 0.813101 0.015330 1.000000
v 0.786779 0.015330 -0.390990
v 0.813101 0.015330 -0.431607
v 0.813101 -0.000000 1.000000
v -0.434430 0.032483 -0.525138
v -0.395275 0.032483 -0.497409
v -0.395275 0.032483 -1.000000
v -0.434430 0.032483 -1.000000
v -0.565670 0.032483 0.810670
v -0.526516 0.032483 0.787461
v -0.526516 0.032483 -0.441894
v -0.565670 0.032483 -0.465102
v -0.434430 0.032483 1.000000
v -0.395275 0.032483 1.000000
v -0.395275 0.032483 0.849957
v -0.434430 0.032483 0.870050
v -0.526516 -0.002719 -0.441894
v -0.395275 -0.002719 -0.497409
v -0.590739 -0.002719 0.810670
v -0.459498 -0.002719 0.870050
v -0.526516 -0.002719 0.787461
v -0.459498 -0.002719 1.000000
v -0.395275 -0.002719 -1.000000
v -0.459498 -0.002719 -0.525138
v -0.590739 -0.002719 -0.465102
v -0.459498 -0.002719 -1.000000
v -0.395275 -0.002719 0.849957
v -0.395275 -0.002719 1.000000
v -0.597931 0.013947 -0.444794
v -0.597931 0.013947 -1.000000
v -0.597931 -0.000000 1.000000
v -0.597931 0.013947 1.000000
v -0.721938 0.013947 0.748192
v -0.721938 0.013947 -0.402469
v -0.597931 0.013947 0.789925
v -0.613790 0.000000 -1.000000
v -0.597931 0.000000 -1.000000
v -0.613790 -0.000000 1.000000
vn -1.0000 0.0000 0.0000
vn 0.0000 0.0000 -1.0000
vn 0.8989 0.4383 0.0000
vn 0.0000 0.0000 1.0000
vn 0.0000 1.0000 0.0000
vn 0.7831 0.6219 0.0000
vn 1.0000 -0.0000 0.0000
vn -0.8403 0.5421 0.0000
vn -0.2557 0.5292 -0.8091
vn -0.2557 0.5291 -0.8091
vn -0.2846 0.4570 0.8427
vn 0.7607 0.4891 -0.4268
vn 0.8411 0.5408 0.0000
vn 0.7386 0.4748 0.4786
vn 0.7385 0.4748 0.4786
vn 0.8412 0.5408 0.0000
vn 0.3896 0.0000 0.9210
vn -0.3955 0.2817 0.8742
vn -0.8146 0.5801 0.0000
vn -0.3989 0.2840 -0.8719
vn 0.4299 0.0000 -0.9029
vn 0.7385 0.4749 0.4786
vn -0.2889 0.4235 0.8586
vn -0.5636 0.8261 0.0000
vn -0.2919 0.4279 -0.8554
usemtl Accent.007
s 1
f 2//1 4//1 1//1
f 6//2 8//2 5//2
f 10//1 12//1 9//1
f 9//1 7//1 6//1
f 1//1 14//1 13//1
f 13//1 11//1 10//1
f 16//3 18//3 15//3
f 20//3 15//3 19//3
f 22//3 24//3 21//3
f 17//3 21//3 18//3
f 25//4 20//4 19//4
f 23//3 8//3 24//3
f 24//5 7//5 12//5
f 25//4 3//4 2//4
f 18//5 11//5 14//5
f 21//5 12//5 11//5
f 19//5 4//5 3//5
f 15//5 14//5 4//5
f 5//2 27//2 28//2
f 2//1 3//1 4//1
f 6//2 7//2 8//2
f 10//1 11//1 12//1
f 9//1 12//1 7//1
f 1//1 4//1 14//1
f 13//1 14//1 11//1
f 16//3 17//3 18//3
f 20//3 16//3 15//3
f 22//3 23//3 24//3
f 17//3 22//3 21//3
f 25//4 26//4 20//4
f 23//3 27//3 8//3
f 24//5 8//5 7//5
f 25//4 19//4 3//4
f 18//5 21//5 11//5
f 21//5 24//5 12//5
f 19//5 15//5 4//5
f 15//5 18//5 14//5
f 5//2 8//2 27//2
usemtl DarkAccent.004
f 30//5 32//5 29//5
f 33//4 32//4 31//4
f 29//2 36//2 30//2
f 34//6 29//6 32//6
f 38//5 40//5 37//5
f 41//4 40//4 39//4
f 37//2 44//2 38//2
f 42//6 37//6 40//6
f 46//5 48//5 45//5
f 49//4 48//4 47//4
f 45//2 52//2 46//2
f 50//6 45//6 48//6
f 54//5 56//5 53//5
f 57//4 56//4 55//4
f 53//2 60//2 54//2
f 58//6 53//6 56//6
f 62//5 64//5 61//5
f 65//4 64//4 63//4
f 61//2 68//2 62//2
f 66//6 61//6 64//6
f 70//5 72//5 69//5
f 73//4 72//4 71//4
f 69//2 76//2 70//2
f 74//6 69//6 72//6
f 78//5 80//5 77//5
f 81//4 78//4 77//4
f 83//1 77//1 80//1
f 82//7 79//7 78//7
f 84//2 80//2 79//2
f 30//5 31//5 32//5
f 33//4 34//4 32//4
f 29//2 35//2 36//2
f 34//6 35//6 29//6
f 38//5 39//5 40//5
f 41//4 42//4 40//4
f 37//2 43//2 44//2
f 42//6 43//6 37//6
f 46//5 47//5 48//5
f 49//4 50//4 48//4
f 45//2 51//2 52//2
f 50//6 51//6 45//6
f 54//5 55//5 56//5
f 57//4 58//4 56//4
f 53//2 59//2 60//2
f 58//6 59//6 53//6
f 62//5 63//5 64//5
f 65//4 66//4 64//4
f 61//2 67//2 68//2
f 66//6 67//6 61//6
f 70//5 71//5 72//5
f 73//4 74//4 72//4
f 69//2 75//2 76//2
f 74//6 75//6 69//6
f 78//5 79//5 80//5
f 81//4 82//4 78//4
f 83//1 81//1 77//1
f 82//7 84//7 79//7
f 84//2 83//2 80//2
usemtl Black.003
f 85//5 27//5 23//5
f 87//5 22//5 17//5
f 88//5 23//5 22//5
f 89//5 16//5 20//5
f 16//5 87//5 17//5
f 85//5 86//5 27//5
f 87//5 88//5 22//5
f 88//5 85//5 23//5
f 89//5 90//5 16//5
f 16//5 90//5 87//5
usemtl Main.006
f 92//4 94//4 91//4
f 95//7 97//7 98//7
f 100//2 102//2 99//2
f 103//8 101//8 105//8
f 100//2 105//2 101//2
f 108//8 110//8 107//8
f 112//7 114//7 111//7
f 109//9 103//9 110//10
f 112//7 98//7 113//7
f 115//7 117//7 118//7
f 93//8 120//8 94//8
f 111//7 117//7 116//7
f 120//11 108//11 107//11
f 119//5 122//5 108//5
f 123//5 119//5 93//5
f 124//5 104//5 109//5
f 122//5 109//5 108//5
f 99//2 127//2 126//2
f 128//4 93//4 92//4
f 125//5 101//5 104//5
f 121//12 130//12 122//12
f 131//13 121//13 123//13
f 132//14 125//15 124//14
f 130//16 124//16 122//16
f 128//4 131//4 123//4
f 133//13 102//13 125//13
f 135//5 137//5 138//5
f 140//5 142//5 139//5
f 141//5 135//5 142//5
f 144//5 146//5 143//5
f 146//5 140//5 139//5
f 147//17 136//17 141//17
f 139//18 150//18 146//18
f 151//7 141//7 140//7
f 150//19 143//19 146//19
f 148//7 137//7 136//7
f 154//20 142//20 135//20
f 155//19 139//19 142//19
f 153//2 138//2 137//2
f 157//21 140//21 145//21
f 156//19 135//19 138//19
f 158//7 145//7 144//7
f 143//4 158//4 144//4
f 92//4 93//4 94//4
f 95//7 96//7 97//7
f 100//2 101//2 102//2
f 103//8 104//8 101//8
f 100//2 106//2 105//2
f 108//8 109//8 110//8
f 112//7 113//7 114//7
f 109//9 104//9 103//9
f 112//7 95//7 98//7
f 115//7 116//7 117//7
f 93//8 119//8 120//8
f 111//7 114//7 117//7
f 120//11 119//11 108//11
f 119//5 121//5 122//5
f 123//5 121//5 119//5
f 124//5 125//5 104//5
f 122//5 124//5 109//5
f 99//2 102//2 127//2
f 128//4 123//4 93//4
f 125//5 102//5 101//5
f 121//12 129//12 130//12
f 131//13 129//13 121//13
f 132//14 133//22 125//15
f 130//16 132//16 124//16
f 128//4 134//4 131//4
f 133//13 127//13 102//13
f 135//5 136//5 137//5
f 140//5 141//5 142//5
f 141//5 136//5 135//5
f 144//5 145//5 146//5
f 146//5 145//5 140//5
f 147//17 148//17 136//17
f 139//18 149//18 150//18
f 151//7 147//7 141//7
f 150//19 152//19 143//19
f 148//7 153//7 137//7
f 154//20 155//20 142//20
f 155//19 149//19 139//19
f 153//2 156//2 138//2
f 157//21 151//21 140//21
f 156//19 154//19 135//19
f 158//7 157//7 145//7
f 143//4 152//4 158//4
usemtl DarkGrey.008
f 98//5 127//5 133//5
f 115//4 131//4 134//4
f 103//5 160//5 159//5
f 91//4 162//4 161//4
f 107//5 164//5 163//5
f 114//5 132//5 130//5
f 110//5 159//5 164//5
f 113//5 133//5 132//5
f 118//5 129//5 131//5
f 94//5 165//5 162//5
f 129//5 114//5 130//5
f 165//5 107//5 163//5
f 126//2 97//2 96//2
f 28//2 86//2 166//2
f 167//2 105//2 106//2
f 90//23 163//23 87//23
f 162//24 90//24 89//24
f 164//25 85//25 88//25
f 163//24 88//24 87//24
f 161//4 89//4 168//4
f 159//24 86//24 85//24
f 168//4 20//4 26//4
f 167//2 86//2 160//2
f 98//5 97//5 127//5
f 115//4 118//4 131//4
f 103//5 105//5 160//5
f 91//4 94//4 162//4
f 107//5 110//5 164//5
f 114//5 113//5 132//5
f 110//5 103//5 159//5
f 113//5 98//5 133//5
f 118//5 117//5 129//5
f 94//5 120//5 165//5
f 129//5 117//5 114//5
f 165//5 120//5 107//5
f 126//2 127//2 97//2
f 28//2 27//2 86//2
f 167//2 160//2 105//2
f 90//23 165//23 163//23
f 162//24 165//24 90//24
f 164//25 159//25 85//25
f 163//24 164//24 88//24
f 161//4 162//4 89//4
f 159//24 160//24 86//24
f 168//4 89//4 20//4
f 167//2 166//2 86//2
