# Blender v2.93.5 OBJ File: ''
# www.blender.org
mtllib Props_Vessel.mtl
o Props_Vessel_Cube.027
v 0.059504 0.659338 -0.143655
v 0.059504 0.689020 -0.143655
v 0.143655 0.689020 -0.059504
v 0.143655 0.659338 -0.059504
v 0.143655 0.689020 0.059504
v 0.143655 0.659338 0.059504
v 0.059504 0.689020 0.143655
v 0.059504 0.659338 0.143655
v -0.059504 0.689020 0.143655
v -0.059504 0.659338 0.143655
v -0.143655 0.689020 0.059504
v -0.143655 0.659338 0.059504
v -0.143655 0.689020 -0.059504
v -0.143655 0.659338 -0.059504
v -0.110605 0.741790 0.045814
v -0.110605 0.741790 -0.045814
v -0.059504 0.689020 -0.143655
v -0.059504 0.659338 -0.143655
v -0.045814 0.741790 0.110605
v -0.028266 0.768050 0.068239
v -0.068239 0.768050 0.028266
v 0.045814 0.741790 0.110605
v -0.045814 0.741790 -0.110605
v 0.110605 0.741790 -0.045814
v 0.110605 0.741790 0.045814
v 0.045814 0.741790 -0.110605
v -0.028266 0.768050 -0.068239
v -0.068239 0.768050 -0.028266
v -0.059330 0.748611 -0.024575
v -0.024575 0.748611 -0.059330
v 0.068239 0.768050 0.028266
v 0.028266 0.768050 0.068239
v 0.028266 0.768050 -0.068239
v 0.068239 0.768050 -0.028266
v -0.024575 0.748611 0.059330
v -0.059330 0.748611 0.024575
v 0.059330 0.748611 0.024575
v 0.024575 0.748611 0.059330
v 0.024575 0.748611 -0.059330
v 0.059330 0.748611 -0.024575
v -0.143655 0.619471 -0.059504
v -0.143655 0.619471 0.059504
v -0.134912 0.620684 0.055882
v -0.134912 0.620684 -0.055882
v 0.134912 0.658125 0.055882
v 0.134912 0.658125 -0.055882
v -0.059504 0.619471 0.143655
v -0.055882 0.620684 0.134912
v 0.055882 0.658125 0.134912
v 0.059504 0.619471 0.143655
v 0.055882 0.620684 0.134912
v -0.055883 0.658125 0.134912
v 0.143655 0.619471 0.059504
v 0.134912 0.620684 0.055882
v -0.134912 0.658125 0.055882
v 0.059504 0.547878 -0.143655
v 0.059504 0.619471 -0.143655
v 0.143655 0.619471 -0.059504
v 0.143655 0.547878 -0.059504
v 0.143655 0.547878 0.059504
v 0.059504 0.547878 0.143655
v -0.059504 0.547878 0.143655
v -0.143655 0.547878 0.059504
v -0.143655 0.547878 -0.059504
v -0.059504 0.619471 -0.143655
v -0.059504 0.547878 -0.143655
v 0.055882 0.658125 -0.134912
v -0.055882 0.620684 -0.134912
v -0.055882 0.658125 -0.134912
v 0.055882 0.620684 -0.134912
v -0.134912 0.658125 -0.055882
v 0.134912 0.620684 -0.055882
v -0.051040 0.487052 -0.123223
v 0.051041 0.487052 -0.123223
v -0.123223 0.487052 -0.051041
v -0.123223 0.487052 0.051040
v -0.051041 0.487052 0.123223
v 0.051040 0.487052 0.123223
v 0.123223 0.487052 0.051041
v 0.123223 0.487052 -0.051040
v 0.051041 0.382777 -0.123223
v 0.123223 0.382777 -0.051040
v 0.123223 0.382777 0.051041
v 0.051040 0.382777 0.123223
v -0.051041 0.382777 0.123223
v -0.123223 0.382777 0.051040
v -0.123223 0.382777 -0.051041
v -0.051040 0.382777 -0.123223
v 0.059504 0.106216 -0.143655
v 0.143655 0.106216 -0.059504
v 0.143655 0.076534 -0.059504
v 0.059504 0.076534 -0.143655
v 0.143655 0.106216 0.059504
v 0.143655 0.076534 0.059504
v 0.059504 0.106216 0.143655
v 0.059504 0.076534 0.143655
v -0.059504 0.106216 0.143655
v -0.059504 0.076534 0.143655
v -0.143655 0.106216 0.059504
v -0.143655 0.076534 0.059504
v -0.143655 0.106216 -0.059504
v -0.143655 0.076534 -0.059504
v -0.110605 0.023765 -0.045814
v -0.110605 0.023765 0.045814
v -0.059504 0.106216 -0.143655
v -0.059504 0.076534 -0.143655
v -0.068239 -0.002496 0.028266
v -0.028265 -0.002496 0.068239
v -0.045814 0.023765 0.110605
v 0.045814 0.023765 0.110605
v -0.045814 0.023765 -0.110605
v 0.110606 0.023765 0.045814
v 0.110606 0.023765 -0.045814
v 0.045814 0.023765 -0.110605
v -0.028266 -0.002496 -0.068239
v -0.024575 0.016943 -0.059330
v -0.059330 0.016943 -0.024575
v -0.068239 -0.002496 -0.028266
v 0.028266 -0.002496 0.068239
v 0.068239 -0.002496 0.028266
v 0.068239 -0.002496 -0.028266
v 0.028266 -0.002496 -0.068239
v -0.059330 0.016943 0.024575
v -0.024575 0.016943 0.059330
v 0.024575 0.016943 0.059330
v 0.059330 0.016943 0.024575
v 0.059330 0.016943 -0.024575
v 0.024575 0.016943 -0.059330
v -0.143655 0.146083 -0.059504
v -0.134912 0.144870 -0.055882
v -0.134912 0.144870 0.055882
v -0.143655 0.146083 0.059504
v 0.134912 0.107429 -0.055882
v 0.134912 0.107429 0.055882
v -0.055882 0.144870 0.134912
v -0.059504 0.146083 0.143655
v 0.055883 0.107429 0.134912
v 0.055883 0.144870 0.134912
v 0.059504 0.146083 0.143655
v -0.055882 0.107429 0.134912
v 0.134912 0.144870 0.055882
v 0.143655 0.146083 0.059504
v -0.134912 0.107429 0.055882
v 0.059504 0.217676 -0.143655
v 0.143655 0.217676 -0.059504
v 0.143655 0.146083 -0.059504
v 0.059504 0.146083 -0.143655
v 0.143655 0.217676 0.059504
v 0.059504 0.217676 0.143655
v -0.059504 0.217676 0.143655
v -0.143655 0.217676 0.059504
v -0.143655 0.217676 -0.059504
v -0.059504 0.217676 -0.143655
v -0.059504 0.146083 -0.143655
v 0.055883 0.107429 -0.134912
v -0.055882 0.144870 -0.134912
v -0.055882 0.107429 -0.134912
v 0.055883 0.144870 -0.134912
v -0.134912 0.107429 -0.055882
v 0.134912 0.144870 -0.055882
v -0.051040 0.278503 -0.123223
v 0.051041 0.278503 -0.123223
v -0.123223 0.278503 -0.051041
v -0.123223 0.278503 0.051040
v -0.051040 0.278503 0.123223
v 0.051041 0.278503 0.123223
v 0.123223 0.278503 0.051041
v 0.123223 0.278503 -0.051040
vn 0.7071 0.0000 -0.7071
vn 1.0000 0.0000 0.0000
vn 0.7071 -0.0000 0.7071
vn 0.0000 -0.0000 1.0000
vn -0.7071 -0.0000 0.7071
vn -1.0000 -0.0000 0.0000
vn -0.8475 0.5308 0.0000
vn -0.7071 0.0000 -0.7071
vn 0.0000 0.0000 -1.0000
vn -0.3725 0.8500 0.3725
vn 0.0000 0.5308 0.8475
vn -0.5993 0.5308 -0.5993
vn 0.8475 0.5308 0.0000
vn -0.5993 0.5308 0.5993
vn 0.0000 0.5308 -0.8475
vn 0.5993 0.5308 -0.5993
vn 0.5993 0.5308 0.5993
vn 0.6428 0.4167 0.6428
vn 0.3725 0.8500 0.3725
vn 0.3725 0.8500 -0.3725
vn 0.0000 0.8500 -0.5268
vn -0.5268 0.8500 0.0000
vn 0.0000 0.8500 0.5268
vn 0.5268 0.8500 0.0000
vn -0.3725 0.8500 -0.3725
vn 0.6428 0.4167 -0.6428
vn -0.6428 0.4167 -0.6428
vn -0.6428 0.4167 0.6428
vn 0.0000 0.4166 0.9091
vn 0.9091 0.4166 0.0000
vn 0.0000 0.4166 -0.9091
vn -0.9091 0.4166 0.0000
vn -0.1374 0.9905 0.0000
vn 0.1374 -0.9905 0.0000
vn -0.0972 0.9905 0.0972
vn 0.0972 -0.9905 0.0972
vn 0.0000 0.9905 0.1374
vn 0.0000 -0.9905 0.1374
vn 0.0972 0.9905 0.0972
vn -0.0972 -0.9905 0.0972
vn 0.0972 -0.9905 -0.0972
vn -0.0972 0.9905 -0.0972
vn 0.0000 -0.9905 -0.1374
vn 0.0000 0.9905 -0.1374
vn -0.0972 -0.9905 -0.0972
vn 0.0972 0.9905 -0.0972
vn -0.1374 -0.9905 0.0000
vn 0.1374 0.9905 0.0000
vn 0.0000 -0.3184 -0.9479
vn -0.6703 -0.3184 -0.6703
vn -0.9479 -0.3184 0.0000
vn -0.6703 -0.3184 0.6703
vn 0.0000 -0.3184 0.9479
vn 0.6703 -0.3184 0.6703
vn 0.9479 -0.3184 0.0000
vn 0.6703 -0.3184 -0.6703
vn -0.8475 -0.5308 -0.0000
vn -0.3725 -0.8500 0.3725
vn 0.0000 -0.5308 0.8475
vn -0.5993 -0.5308 -0.5993
vn 0.8475 -0.5308 -0.0000
vn -0.5993 -0.5308 0.5993
vn 0.0000 -0.5308 -0.8475
vn 0.5993 -0.5308 -0.5993
vn 0.5993 -0.5308 0.5993
vn 0.6428 -0.4167 0.6428
vn 0.3725 -0.8500 0.3725
vn 0.3725 -0.8500 -0.3725
vn 0.0000 -0.8500 -0.5269
vn -0.5269 -0.8500 -0.0000
vn 0.0000 -0.8500 0.5269
vn 0.5268 -0.8500 -0.0000
vn -0.3725 -0.8500 -0.3725
vn 0.6428 -0.4166 -0.6428
vn -0.6428 -0.4167 -0.6428
vn -0.6428 -0.4167 0.6428
vn 0.0000 -0.4166 0.9091
vn 0.9091 -0.4166 -0.0000
vn 0.0000 -0.4166 -0.9091
vn -0.9091 -0.4166 -0.0000
vn 0.0000 0.3184 -0.9479
vn -0.6703 0.3184 -0.6703
vn -0.9479 0.3184 0.0000
vn -0.6703 0.3184 0.6703
vn 0.0000 0.3184 0.9479
vn 0.6703 0.3184 0.6703
vn 0.9479 0.3184 0.0000
vn 0.6703 0.3184 -0.6703
vn 0.6428 -0.4167 -0.6428
vn 0.0000 1.0000 -0.0000
vn -0.0000 -1.0000 -0.0000
usemtl Main.008
s 1
f 2//1 4//1 1//1
f 3//2 6//2 4//2
f 5//3 8//3 6//3
f 7//4 10//4 8//4
f 9//5 12//5 10//5
f 11//6 14//6 12//6
f 11//7 16//7 13//7
f 13//8 18//8 14//8
f 17//9 1//9 18//9
f 19//10 21//10 15//10
f 7//11 19//11 9//11
f 17//12 16//12 23//12
f 3//13 25//13 5//13
f 9//14 15//14 11//14
f 17//15 26//15 2//15
f 2//16 24//16 3//16
f 7//17 25//17 22//17
f 28//18 30//18 27//18
f 25//19 32//19 22//19
f 26//20 34//20 24//20
f 23//21 33//21 26//21
f 15//22 28//22 16//22
f 22//23 20//23 19//23
f 24//24 31//24 25//24
f 16//25 27//25 23//25
f 21//26 35//26 36//26
f 31//27 38//27 32//27
f 34//28 39//28 40//28
f 27//29 39//29 33//29
f 21//30 29//30 28//30
f 32//31 35//31 20//31
f 34//32 37//32 31//32
f 42//33 44//33 41//33
f 6//34 46//34 4//34
f 47//35 43//35 42//35
f 6//36 49//36 45//36
f 50//37 48//37 47//37
f 10//38 49//38 8//38
f 53//39 51//39 50//39
f 12//40 52//40 10//40
f 57//1 59//1 56//1
f 58//2 60//2 59//2
f 53//3 61//3 60//3
f 50//4 62//4 61//4
f 47//5 63//5 62//5
f 42//6 64//6 63//6
f 41//8 66//8 64//8
f 65//9 56//9 66//9
f 4//41 67//41 1//41
f 41//42 68//42 65//42
f 1//43 69//43 18//43
f 65//44 70//44 57//44
f 14//45 69//45 71//45
f 57//46 72//46 58//46
f 14//47 55//47 12//47
f 58//48 54//48 53//48
f 73//49 56//49 74//49
f 75//50 66//50 73//50
f 76//51 64//51 75//51
f 77//52 63//52 76//52
f 78//53 62//53 77//53
f 79//54 61//54 78//54
f 80//55 60//55 79//55
f 74//56 59//56 80//56
f 74//1 82//1 81//1
f 80//2 83//2 82//2
f 79//3 84//3 83//3
f 78//4 85//4 84//4
f 77//5 86//5 85//5
f 76//6 87//6 86//6
f 75//8 88//8 87//8
f 73//9 81//9 88//9
f 90//1 92//1 89//1
f 93//2 91//2 90//2
f 95//3 94//3 93//3
f 97//4 96//4 95//4
f 99//5 98//5 97//5
f 101//6 100//6 99//6
f 103//57 100//57 102//57
f 105//8 102//8 101//8
f 89//9 106//9 105//9
f 107//58 109//58 104//58
f 109//59 96//59 98//59
f 111//60 102//60 106//60
f 112//61 91//61 94//61
f 104//62 98//62 100//62
f 114//63 106//63 92//63
f 91//64 114//64 92//64
f 110//65 94//65 96//65
f 115//66 117//66 118//66
f 110//67 120//67 112//67
f 121//68 114//68 113//68
f 122//69 111//69 114//69
f 118//70 104//70 103//70
f 108//71 110//71 109//71
f 120//72 113//72 112//72
f 115//73 103//73 111//73
f 107//74 124//74 108//74
f 119//75 126//75 120//75
f 127//76 122//76 121//76
f 128//77 115//77 122//77
f 117//78 107//78 118//78
f 108//79 125//79 119//79
f 126//80 121//80 120//80
f 130//47 132//47 129//47
f 133//48 93//48 90//48
f 131//40 136//40 132//40
f 93//39 137//39 95//39
f 135//38 139//38 136//38
f 95//37 140//37 97//37
f 138//36 142//36 139//36
f 140//35 99//35 97//35
f 145//1 147//1 144//1
f 148//2 146//2 145//2
f 149//3 142//3 148//3
f 150//4 139//4 149//4
f 151//5 136//5 150//5
f 152//6 132//6 151//6
f 153//8 129//8 152//8
f 144//9 154//9 153//9
f 155//46 90//46 89//46
f 154//45 130//45 129//45
f 157//44 89//44 105//44
f 147//43 156//43 154//43
f 159//42 105//42 101//42
f 146//41 158//41 147//41
f 143//33 101//33 99//33
f 141//34 146//34 142//34
f 161//81 144//81 153//81
f 163//82 153//82 152//82
f 164//83 152//83 151//83
f 164//84 150//84 165//84
f 165//85 149//85 166//85
f 167//86 149//86 148//86
f 168//87 148//87 145//87
f 162//88 145//88 144//88
f 82//1 162//1 81//1
f 83//2 168//2 82//2
f 83//3 166//3 167//3
f 84//4 165//4 166//4
f 85//5 164//5 165//5
f 87//6 164//6 86//6
f 88//8 163//8 87//8
f 81//9 161//9 88//9
f 2//1 3//1 4//1
f 3//2 5//2 6//2
f 5//3 7//3 8//3
f 7//4 9//4 10//4
f 9//5 11//5 12//5
f 11//6 13//6 14//6
f 11//7 15//7 16//7
f 13//8 17//8 18//8
f 17//9 2//9 1//9
f 19//10 20//10 21//10
f 7//11 22//11 19//11
f 17//12 13//12 16//12
f 3//13 24//13 25//13
f 9//14 19//14 15//14
f 17//15 23//15 26//15
f 2//16 26//16 24//16
f 7//17 5//17 25//17
f 28//18 29//18 30//18
f 25//19 31//19 32//19
f 26//20 33//20 34//20
f 23//21 27//21 33//21
f 15//22 21//22 28//22
f 22//23 32//23 20//23
f 24//24 34//24 31//24
f 16//25 28//25 27//25
f 21//26 20//26 35//26
f 31//27 37//27 38//27
f 34//28 33//28 39//28
f 27//29 30//29 39//29
f 21//30 36//30 29//30
f 32//31 38//31 35//31
f 34//32 40//32 37//32
f 42//33 43//33 44//33
f 6//34 45//34 46//34
f 47//35 48//35 43//35
f 6//36 8//36 49//36
f 50//37 51//37 48//37
f 10//38 52//38 49//38
f 53//39 54//39 51//39
f 12//40 55//40 52//40
f 57//1 58//1 59//1
f 58//2 53//2 60//2
f 53//3 50//3 61//3
f 50//4 47//4 62//4
f 47//5 42//5 63//5
f 42//6 41//6 64//6
f 41//8 65//8 66//8
f 65//9 57//9 56//9
f 4//41 46//41 67//41
f 41//42 44//42 68//42
f 1//43 67//43 69//43
f 65//44 68//44 70//44
f 14//45 18//45 69//45
f 57//46 70//46 72//46
f 14//47 71//47 55//47
f 58//48 72//48 54//48
f 73//49 66//49 56//49
f 75//50 64//50 66//50
f 76//51 63//51 64//51
f 77//52 62//52 63//52
f 78//53 61//53 62//53
f 79//54 60//54 61//54
f 80//55 59//55 60//55
f 74//56 56//56 59//56
f 74//1 80//1 82//1
f 80//2 79//2 83//2
f 79//3 78//3 84//3
f 78//4 77//4 85//4
f 77//5 76//5 86//5
f 76//6 75//6 87//6
f 75//8 73//8 88//8
f 73//9 74//9 81//9
f 90//1 91//1 92//1
f 93//2 94//2 91//2
f 95//3 96//3 94//3
f 97//4 98//4 96//4
f 99//5 100//5 98//5
f 101//6 102//6 100//6
f 103//57 104//57 100//57
f 105//8 106//8 102//8
f 89//9 92//9 106//9
f 107//58 108//58 109//58
f 109//59 110//59 96//59
f 111//60 103//60 102//60
f 112//61 113//61 91//61
f 104//62 109//62 98//62
f 114//63 111//63 106//63
f 91//64 113//64 114//64
f 110//65 112//65 94//65
f 115//66 116//66 117//66
f 110//67 119//67 120//67
f 121//68 122//68 114//68
f 122//69 115//69 111//69
f 118//70 107//70 104//70
f 108//71 119//71 110//71
f 120//72 121//72 113//72
f 115//73 118//73 103//73
f 107//74 123//89 124//74
f 119//75 125//75 126//75
f 127//76 128//76 122//76
f 128//77 116//77 115//77
f 117//78 123//78 107//78
f 108//79 124//79 125//79
f 126//80 127//80 121//80
f 130//47 131//47 132//47
f 133//48 134//48 93//48
f 131//40 135//40 136//40
f 93//39 134//39 137//39
f 135//38 138//38 139//38
f 95//37 137//37 140//37
f 138//36 141//36 142//36
f 140//35 143//35 99//35
f 145//1 146//1 147//1
f 148//2 142//2 146//2
f 149//3 139//3 142//3
f 150//4 136//4 139//4
f 151//5 132//5 136//5
f 152//6 129//6 132//6
f 153//8 154//8 129//8
f 144//9 147//9 154//9
f 155//46 133//46 90//46
f 154//45 156//45 130//45
f 157//44 155//44 89//44
f 147//43 158//43 156//43
f 159//42 157//42 105//42
f 146//41 160//41 158//41
f 143//33 159//33 101//33
f 141//34 160//34 146//34
f 161//81 162//81 144//81
f 163//82 161//82 153//82
f 164//83 163//83 152//83
f 164//84 151//84 150//84
f 165//85 150//85 149//85
f 167//86 166//86 149//86
f 168//87 167//87 148//87
f 162//88 168//88 145//88
f 82//1 168//1 162//1
f 83//2 167//2 168//2
f 83//3 84//3 166//3
f 84//4 85//4 165//4
f 85//5 86//5 164//5
f 87//6 163//6 164//6
f 88//8 161//8 163//8
f 81//9 162//9 161//9
usemtl Accent.009
f 69//9 70//9 68//9
f 71//8 68//8 44//8
f 55//6 44//6 43//6
f 52//5 43//5 48//5
f 49//4 48//4 51//4
f 45//3 51//3 54//3
f 46//2 54//2 72//2
f 67//1 72//1 70//1
f 158//9 157//9 156//9
f 156//8 159//8 130//8
f 130//6 143//6 131//6
f 131//5 140//5 135//5
f 135//4 137//4 138//4
f 138//3 134//3 141//3
f 141//2 133//2 160//2
f 160//1 155//1 158//1
f 69//9 67//9 70//9
f 71//8 69//8 68//8
f 55//6 71//6 44//6
f 52//5 55//5 43//5
f 49//4 52//4 48//4
f 45//3 49//3 51//3
f 46//2 45//2 54//2
f 67//1 46//1 72//1
f 158//9 155//9 157//9
f 156//8 157//8 159//8
f 130//6 159//6 143//6
f 131//5 143//5 140//5
f 135//4 140//4 137//4
f 138//3 137//3 134//3
f 141//2 134//2 133//2
f 160//1 133//1 155//1
usemtl DarkGrey.010
f 39//90 29//90 35//90
f 124//91 117//91 128//91
f 37//90 40//90 39//90
f 39//90 30//90 29//90
f 29//90 36//90 35//90
f 35//90 38//90 37//90
f 37//90 39//90 35//90
f 128//91 127//91 126//91
f 126//91 125//91 124//91
f 124//91 123//91 117//91
f 117//91 116//91 128//91
f 128//91 126//91 124//91
