# Blender v2.93.5 OBJ File: ''
# www.blender.org
mtllib Details_Pipes_Long.mtl
o Details_Pipes_Long_Plane.061
v -0.021873 0.730245 0.061663
v -0.052797 0.730246 0.074474
v -0.052797 0.715835 0.074474
v -0.021873 0.715835 0.061663
v -0.083719 0.730245 0.061663
v -0.096531 0.730245 0.030740
v -0.096532 0.715835 0.030740
v -0.083719 0.715835 0.061663
v -0.009062 0.730245 0.030740
v -0.009062 0.715835 0.030740
v -0.006375 0.691093 0.030740
v -0.019973 0.691093 0.063562
v -0.019973 -0.677606 0.063562
v -0.006375 -0.677606 0.030740
v -0.085619 0.691093 0.063562
v -0.099218 0.691093 0.030740
v -0.099218 -0.677606 0.030740
v -0.085619 -0.677606 0.063562
v -0.052797 0.691093 0.077160
v -0.052796 -0.677606 0.077160
v -0.131333 0.682359 0.061663
v -0.162257 0.682359 0.074474
v -0.162257 0.530457 0.074474
v -0.131333 0.530457 0.061663
v -0.193180 0.682359 0.061663
v -0.205992 0.682360 0.030740
v -0.205992 0.530457 0.030740
v -0.193180 0.530457 0.061663
v -0.118522 0.682359 0.030740
v -0.118522 0.530457 0.030740
v -0.115836 0.505714 0.030740
v -0.129434 0.505714 0.063562
v -0.129434 -0.693045 0.063562
v -0.115836 -0.693045 0.030740
v -0.195079 0.505714 0.063562
v -0.208678 0.505714 0.030740
v -0.208678 -0.693045 0.030740
v -0.195079 -0.693045 0.063562
v -0.162257 0.505714 0.077160
v -0.162257 -0.693045 0.077160
v 0.026169 -0.709529 0.061663
v 0.057093 -0.709529 0.074474
v 0.057093 -0.278810 0.074474
v 0.026169 -0.278810 0.061663
v 0.088015 -0.709529 0.061663
v 0.100828 -0.709529 0.030740
v 0.100828 -0.278810 0.030740
v 0.088015 -0.278810 0.061663
v 0.013358 -0.709529 0.030740
v 0.013358 -0.278810 0.030740
v 0.010671 -0.254068 0.030740
v 0.024270 -0.254068 0.063562
v 0.024270 0.705189 0.063562
v 0.010671 0.705189 0.030740
v 0.089915 -0.254068 0.063562
v 0.103514 -0.254068 0.030740
v 0.103514 0.705189 0.030740
v 0.089915 0.705189 0.063562
v 0.057093 -0.254068 0.077160
v 0.057093 0.705189 0.077160
v 0.135630 -0.709529 0.061663
v 0.166553 -0.709529 0.074474
v 0.166553 -0.446766 0.074474
v 0.135630 -0.446766 0.061663
v 0.197476 -0.709529 0.061663
v 0.210288 -0.709529 0.030740
v 0.210288 -0.446766 0.030740
v 0.197476 -0.446766 0.061663
v 0.122818 -0.709529 0.030740
v 0.122818 -0.446766 0.030740
v 0.120132 -0.422024 0.030740
v 0.133730 -0.422024 0.063562
v 0.133730 0.708976 0.063562
v 0.120132 0.708976 0.030740
v 0.199375 -0.422024 0.063562
v 0.212975 -0.422024 0.030740
v 0.212974 0.708976 0.030740
v 0.199375 0.708976 0.063562
v 0.166553 -0.422024 0.077160
v 0.166553 0.708976 0.077160
v -0.008658 0.715836 0.074878
v 0.009628 0.715836 0.030740
v -0.052797 0.715835 0.093163
v -0.096934 0.715835 0.074877
v -0.115221 0.715835 0.030740
v -0.003193 0.730245 0.030740
v -0.017724 0.730245 0.065812
v -0.052797 0.730245 0.080342
v -0.087868 0.730245 0.065812
v -0.102400 0.730245 0.030740
v -0.003193 0.753664 0.030740
v -0.017724 0.753664 0.065812
v -0.087868 0.753664 0.065812
v -0.102400 0.753664 0.030740
v -0.052797 0.753664 0.080342
v -0.008658 0.699341 0.074878
v -0.052797 0.699341 0.093163
v -0.052797 0.691093 0.093163
v -0.008658 0.691093 0.074878
v -0.096934 0.699341 0.074877
v -0.096934 0.691093 0.074877
v 0.009628 0.699341 0.030740
v 0.009628 0.691093 0.030740
v -0.115221 0.699341 0.030740
v -0.115221 0.691093 0.030740
v -0.014955 -0.682369 0.068581
v 0.000722 -0.682369 0.030740
v -0.106315 -0.682369 0.030740
v -0.090637 -0.682369 0.068580
v -0.052796 -0.682369 0.084257
v -0.052796 -0.760224 0.084257
v -0.014955 -0.760224 0.068581
v 0.000722 -0.760224 0.030740
v -0.106315 -0.760224 0.030740
v -0.090637 -0.760224 0.068580
v -0.115221 0.707588 0.030740
v -0.096934 0.707588 0.074877
v -0.090366 0.699954 0.068310
v -0.105933 0.699954 0.030740
v -0.008658 0.707588 0.074877
v 0.009628 0.707588 0.030740
v -0.015226 0.699954 0.068310
v -0.052797 0.699954 0.083875
v -0.052797 0.707588 0.093163
v -0.105933 0.706975 0.030740
v -0.090366 0.706975 0.068310
v -0.052797 0.706975 0.083875
v -0.015226 0.706975 0.068310
v 0.000340 0.706974 0.030740
v 0.000339 0.699954 0.030740
v -0.118119 0.530457 0.074878
v -0.099833 0.530457 0.030740
v -0.162257 0.530457 0.093163
v -0.206394 0.530457 0.074877
v -0.224682 0.530457 0.030740
v -0.112654 0.688605 0.030740
v -0.127184 0.688605 0.065812
v -0.162257 0.688605 0.080342
v -0.197329 0.688605 0.065812
v -0.211860 0.688605 0.030740
v -0.112654 0.753664 0.030740
v -0.127184 0.753664 0.065812
v -0.197329 0.753664 0.065812
v -0.211860 0.753664 0.030740
v -0.162257 0.753664 0.080342
v -0.118119 0.513962 0.074877
v -0.162257 0.513962 0.093163
v -0.162257 0.505714 0.093163
v -0.118119 0.505714 0.074877
v -0.206394 0.513962 0.074877
v -0.206394 0.505714 0.074877
v -0.099833 0.513962 0.030740
v -0.099833 0.505714 0.030740
v -0.224682 0.513962 0.030740
v -0.224682 0.505714 0.030740
v -0.124416 -0.698105 0.068581
v -0.108738 -0.698105 0.030740
v -0.215775 -0.698105 0.030740
v -0.200097 -0.698105 0.068580
v -0.162257 -0.698105 0.084258
v -0.162257 -0.760224 0.084258
v -0.124416 -0.760224 0.068581
v -0.108738 -0.760224 0.030740
v -0.215775 -0.760224 0.030740
v -0.200097 -0.760224 0.068580
v -0.224681 0.522209 0.030740
v -0.206394 0.522209 0.074877
v -0.199827 0.514575 0.068310
v -0.215393 0.514575 0.030740
v -0.118119 0.522209 0.074878
v -0.099833 0.522209 0.030740
v -0.124686 0.514575 0.068310
v -0.162257 0.514575 0.083875
v -0.162257 0.522209 0.093163
v -0.215393 0.521595 0.030740
v -0.199827 0.521595 0.068310
v -0.162257 0.521595 0.083875
v -0.124686 0.521595 0.068310
v -0.109121 0.521595 0.030740
v -0.109121 0.514575 0.030740
v 0.012954 -0.278810 0.074878
v -0.005332 -0.278810 0.030740
v 0.057093 -0.278810 0.093163
v 0.101230 -0.278810 0.074877
v 0.119517 -0.278810 0.030740
v 0.007489 -0.712421 0.030740
v 0.022020 -0.712421 0.065812
v 0.057093 -0.712421 0.080342
v 0.092165 -0.712420 0.065812
v 0.106696 -0.712420 0.030740
v 0.007489 -0.748129 0.030740
v 0.022020 -0.748129 0.065812
v 0.092165 -0.748129 0.065812
v 0.106696 -0.748129 0.030740
v 0.057093 -0.748129 0.080342
v 0.012954 -0.262316 0.074877
v 0.057093 -0.262316 0.093163
v 0.057093 -0.254068 0.093163
v 0.012954 -0.254068 0.074877
v 0.101230 -0.262316 0.074877
v 0.101230 -0.254068 0.074877
v -0.005332 -0.262316 0.030740
v -0.005332 -0.254068 0.030740
v 0.119517 -0.262316 0.030740
v 0.119517 -0.254068 0.030740
v 0.019251 0.709359 0.068581
v 0.003574 0.709359 0.030740
v 0.110611 0.709359 0.030740
v 0.094933 0.709359 0.068580
v 0.057093 0.709359 0.084257
v 0.057093 0.765760 0.084257
v 0.019251 0.765760 0.068581
v 0.003574 0.765760 0.030740
v 0.110611 0.765760 0.030740
v 0.094933 0.765760 0.068580
v 0.119517 -0.270563 0.030740
v 0.101230 -0.270563 0.074877
v 0.094663 -0.262929 0.068310
v 0.110229 -0.262929 0.030740
v 0.012954 -0.270563 0.074877
v -0.005332 -0.270563 0.030740
v 0.019522 -0.262929 0.068310
v 0.057093 -0.262929 0.083875
v 0.057093 -0.270563 0.093163
v 0.110229 -0.269949 0.030740
v 0.094663 -0.269949 0.068310
v 0.057093 -0.269949 0.083875
v 0.019522 -0.269949 0.068310
v 0.003957 -0.269949 0.030740
v 0.003957 -0.262929 0.030740
v 0.122415 -0.446766 0.074877
v 0.104129 -0.446766 0.030740
v 0.166553 -0.446766 0.093163
v 0.210690 -0.446766 0.074877
v 0.228978 -0.446766 0.030740
v 0.116950 -0.712420 0.030740
v 0.131480 -0.712420 0.065812
v 0.166553 -0.712420 0.080342
v 0.201625 -0.712420 0.065812
v 0.216156 -0.712420 0.030740
v 0.116950 -0.748129 0.030740
v 0.131480 -0.748129 0.065812
v 0.201625 -0.748129 0.065812
v 0.216157 -0.748129 0.030740
v 0.166553 -0.748129 0.080342
v 0.122415 -0.430271 0.074877
v 0.166553 -0.430271 0.093163
v 0.166553 -0.422024 0.093163
v 0.122415 -0.422024 0.074877
v 0.210690 -0.430271 0.074877
v 0.210690 -0.422024 0.074877
v 0.104129 -0.430271 0.030740
v 0.104129 -0.422024 0.030740
v 0.228978 -0.430271 0.030740
v 0.228978 -0.422024 0.030740
v 0.128712 0.708976 0.068581
v 0.113035 0.708976 0.030740
v 0.220072 0.708976 0.030740
v 0.204394 0.708976 0.068580
v 0.166553 0.708976 0.084258
v 0.166553 0.765760 0.084257
v 0.128712 0.765760 0.068581
v 0.113034 0.765760 0.030740
v 0.220072 0.765760 0.030740
v 0.204393 0.765760 0.068580
v 0.228978 -0.438518 0.030740
v 0.210690 -0.438518 0.074877
v 0.204123 -0.430885 0.068310
v 0.219689 -0.430885 0.030740
v 0.122415 -0.438518 0.074877
v 0.104129 -0.438518 0.030740
v 0.128982 -0.430885 0.068310
v 0.166553 -0.430885 0.083875
v 0.166553 -0.438518 0.093163
v 0.219689 -0.437905 0.030740
v 0.204123 -0.437905 0.068310
v 0.166553 -0.437905 0.083875
v 0.128982 -0.437905 0.068310
v 0.113417 -0.437905 0.030740
v 0.113417 -0.430885 0.030740
v -0.242684 0.742695 0.091752
v -0.242684 -0.742695 0.091752
v -0.223360 -0.715190 0.091752
v -0.223360 0.715190 0.091752
v -0.230710 -0.792296 -0.000000
v 0.230710 -0.792296 -0.000000
v 0.216229 -0.771683 0.091752
v -0.216229 -0.771683 0.091752
v 0.196905 -0.744179 0.091752
v -0.196906 -0.744179 0.091752
v -0.216229 0.771684 0.091752
v 0.216229 0.771684 0.091752
v 0.230710 0.792296 0.000000
v -0.230710 0.792296 0.000000
v 0.242683 -0.742694 0.091752
v 0.242683 0.742695 0.091752
v 0.223360 0.715190 0.091752
v 0.223360 -0.715190 0.091752
v 0.223360 0.715190 0.037937
v 0.223360 -0.715190 0.037937
v 0.196905 0.744179 0.091752
v -0.196906 0.744179 0.091752
v -0.196906 0.744179 0.037937
v 0.196905 0.744179 0.037937
v 0.257165 -0.763307 -0.000000
v 0.257164 0.763307 0.000000
v -0.223360 -0.715190 0.037937
v -0.223360 0.715190 0.037937
v 0.196905 -0.744179 0.037937
v -0.196906 -0.744179 0.037937
v -0.257165 0.763307 0.000000
v -0.234935 0.763193 0.091752
v -0.249416 0.783805 0.000000
v 0.249416 0.783805 0.000000
v 0.234935 0.763193 0.091752
v -0.257165 -0.763307 -0.000000
v -0.249416 -0.783805 -0.000000
v -0.234935 -0.763193 0.091752
v 0.234935 -0.763193 0.091752
v 0.249416 -0.783805 -0.000000
v 0.215612 0.735688 0.091752
v 0.215612 -0.735688 0.091752
v -0.215612 -0.735688 0.091752
v -0.215612 0.735688 0.091752
v -0.215612 -0.735688 0.037937
v -0.215612 0.735688 0.037937
v 0.215611 0.735688 0.037937
v 0.215612 -0.735688 0.037937
vn 0.3827 -0.0000 0.9239
vn -0.9238 0.0000 0.3828
vn 0.9239 -0.0000 0.3827
vn -0.3828 -0.0000 0.9239
vn -0.3827 -0.0000 0.9239
vn 0.9238 -0.0000 0.3828
vn -0.9239 -0.0000 0.3827
vn 0.3828 -0.0000 0.9239
vn -0.9238 0.0001 0.3828
vn -0.0001 1.0000 -0.0000
vn -0.0000 1.0000 -0.0000
vn -0.0000 -1.0000 -0.0000
vn 0.0000 -1.0000 -0.0001
vn 0.0000 -1.0000 -0.0002
vn 0.5430 0.8091 0.2249
vn 0.3940 0.8303 0.3941
vn -0.5430 0.8091 0.2250
vn -0.3941 0.8303 0.3941
vn -0.0000 0.8303 0.5573
vn 0.3940 0.8303 0.3940
vn -0.0466 0.9978 0.0466
vn -0.0658 0.9975 0.0273
vn 0.9239 -0.0000 0.3828
vn 0.0466 0.9978 0.0466
vn -0.0000 0.9978 0.0659
vn -0.3828 -0.0000 0.9238
vn -0.0466 -0.9978 0.0466
vn -0.0658 -0.9975 0.0273
vn 0.0466 -0.9978 0.0466
vn -0.0000 -0.9978 0.0659
vn 0.3827 -0.0001 0.9239
vn 0.9238 -0.0001 0.3828
vn 0.0659 -0.9975 0.0273
vn 0.0659 -0.9974 0.0273
vn 0.0658 0.9975 0.0273
vn 0.6977 -0.6555 0.2891
vn 0.6977 -0.6555 0.2890
vn -0.2891 -0.6555 0.6977
vn -0.6977 -0.6555 0.2891
vn 0.2890 -0.6555 0.6977
vn 0.5644 0.7917 0.2338
vn 0.4105 0.8143 0.4105
vn -0.5644 0.7917 0.2339
vn -0.4105 0.8142 0.4105
vn -0.0000 0.8143 0.5805
vn 0.4105 0.8142 0.4105
vn -0.9238 -0.0001 0.3828
vn -0.0659 -0.9974 0.0273
vn -0.0000 -0.9978 0.0660
vn -0.3126 0.8970 0.3126
vn -0.4348 0.8823 0.1801
vn 0.3125 0.8970 0.3125
vn -0.0000 0.8970 0.4421
vn 0.4347 0.8824 0.1801
vn 0.3125 0.8971 0.3125
vn -0.9239 -0.0000 0.3828
vn -0.4958 -0.8438 0.2054
vn -0.3582 -0.8622 0.3582
vn 0.4958 -0.8438 0.2054
vn 0.3582 -0.8622 0.3582
vn 0.0000 -0.8622 0.5066
vn 0.0658 -0.9975 0.0273
vn 0.0659 0.9974 0.0273
vn 0.0000 0.9978 0.0660
vn -0.3827 0.0001 0.9239
vn -0.0659 0.9975 0.0273
vn -0.3125 0.8970 0.3125
vn -0.4347 0.8824 0.1801
vn 0.0000 0.8970 0.4419
vn 0.3828 0.0000 0.9238
vn -0.5430 0.8090 0.2250
vn 0.0000 -0.0000 1.0000
vn 0.2174 -0.9444 0.2465
vn -0.1912 -0.9508 0.2438
vn -0.2174 -0.9444 0.2465
vn 0.1912 0.9508 0.2438
vn -0.2174 0.9444 0.2465
vn -0.1912 0.9508 0.2438
vn -0.9837 -0.1797 0.0000
vn -0.9837 0.1797 0.0000
vn 0.2114 -0.9774 0.0000
vn -0.2114 -0.9774 0.0000
vn 0.9608 0.1962 0.1957
vn 0.9699 -0.1551 0.1879
vn 0.9608 -0.1962 0.1957
vn 0.9837 0.1797 0.0000
vn 0.9837 -0.1797 0.0000
vn -0.2114 0.9774 0.0000
vn 0.2114 0.9774 0.0000
vn -0.9608 0.1962 0.1957
vn -0.9122 0.3448 0.2214
vn -0.3991 0.8791 0.2605
vn 0.9122 0.3448 0.2214
vn 0.9699 0.1551 0.1879
vn 0.3991 0.8791 0.2605
vn 0.2174 0.9444 0.2465
vn -0.9608 -0.1962 0.1957
vn -0.9122 -0.3448 0.2214
vn -0.9699 -0.1552 0.1879
vn -0.3990 -0.8792 0.2605
vn 0.9122 -0.3448 0.2214
vn 0.3990 -0.8792 0.2605
vn 0.3991 -0.8791 0.2605
vn 0.4133 0.9106 0.0000
vn 0.9354 0.3536 0.0000
vn 0.4133 -0.9106 0.0000
vn 0.9354 -0.3536 0.0000
vn -0.9354 -0.3536 0.0000
vn -0.4133 -0.9106 0.0000
vn -0.4133 0.9106 0.0000
vn -0.9354 0.3536 0.0000
vn -0.9699 0.1552 0.1879
vn 0.1912 -0.9508 0.2438
vn -0.3991 -0.8791 0.2605
usemtl Accent.001
s 1
f 1//1 3//1 4//1
f 6//2 8//2 5//2
f 1//3 10//3 9//3
f 5//4 3//4 2//4
f 12//3 14//3 11//3
f 16//2 18//2 15//2
f 15//5 20//5 19//5
f 19//1 13//1 12//1
f 22//1 24//1 21//1
f 25//2 27//2 28//2
f 21//3 30//3 29//3
f 25//5 23//5 22//5
f 32//3 34//3 31//3
f 36//2 38//2 35//2
f 35//5 40//5 39//5
f 39//1 33//1 32//1
f 42//5 44//5 41//5
f 46//6 48//6 45//6
f 41//7 50//7 49//7
f 45//8 43//8 42//8
f 52//2 54//2 51//2
f 56//6 58//6 55//6
f 55//1 60//1 59//1
f 59//5 53//5 52//5
f 62//5 64//5 61//5
f 66//6 68//6 65//6
f 61//2 70//2 69//2
f 65//1 63//1 62//1
f 72//7 74//7 71//7
f 76//6 78//6 75//6
f 75//1 80//1 79//1
f 79//5 73//5 72//5
f 1//1 2//1 3//1
f 6//2 7//9 8//2
f 1//3 4//3 10//3
f 5//4 8//4 3//4
f 12//3 13//3 14//3
f 16//2 17//2 18//2
f 15//5 18//5 20//5
f 19//1 20//1 13//1
f 22//1 23//1 24//1
f 25//2 26//2 27//2
f 21//3 24//3 30//3
f 25//5 28//5 23//5
f 32//3 33//3 34//3
f 36//2 37//2 38//2
f 35//5 38//5 40//5
f 39//1 40//1 33//1
f 42//5 43//5 44//5
f 46//6 47//6 48//6
f 41//7 44//7 50//7
f 45//8 48//8 43//8
f 52//2 53//2 54//2
f 56//6 57//6 58//6
f 55//1 58//1 60//1
f 59//5 60//5 53//5
f 62//5 63//5 64//5
f 66//6 67//6 68//6
f 61//2 64//2 70//2
f 65//1 68//1 63//1
f 72//7 73//7 74//7
f 76//6 77//6 78//6
f 75//1 78//1 80//1
f 79//5 80//5 73//5
usemtl DarkGrey.001
f 10//10 81//11 82//10
f 3//11 81//11 4//11
f 3//11 84//11 83//11
f 7//11 84//11 8//11
f 87//12 9//12 86//12
f 89//12 2//13 88//14
f 89//12 6//12 5//12
f 87//12 2//13 1//12
f 92//6 86//6 91//6
f 94//2 89//2 93//2
f 93//4 88//4 95//4
f 95//1 87//1 92//1
f 97//1 99//1 96//1
f 100//4 98//4 97//4
f 96//3 103//3 102//3
f 104//2 101//2 100//2
f 99//12 19//12 12//12
f 99//12 11//12 103//12
f 101//12 16//12 15//12
f 101//12 19//12 98//12
f 14//15 106//16 107//15
f 17//17 109//18 18//18
f 20//19 109//18 110//19
f 20//19 106//16 13//20
f 110//1 112//1 106//1
f 106//3 113//3 107//3
f 108//2 115//2 109//2
f 109//5 111//5 110//5
f 85//2 117//2 84//2
f 100//21 119//22 104//22
f 82//23 120//3 121//23
f 96//24 123//25 97//25
f 84//4 124//26 83//26
f 117//27 125//28 126//27
f 100//21 123//25 118//21
f 120//29 127//30 128//29
f 117//27 127//30 124//30
f 81//31 124//1 120//31
f 125//2 118//2 126//2
f 128//23 130//32 129//32
f 126//4 123//4 127//4
f 127//1 122//1 128//1
f 120//29 129//33 121//34
f 96//24 130//35 122//24
f 30//11 131//11 132//11
f 23//11 131//11 24//11
f 23//11 134//11 133//11
f 27//11 134//11 28//11
f 137//36 29//36 136//37
f 139//38 22//38 138//38
f 139//39 26//39 25//39
f 137//40 22//40 21//40
f 142//3 136//3 141//3
f 144//2 139//2 143//2
f 143//5 138//5 145//5
f 145//1 137//1 142//1
f 147//1 149//1 146//1
f 150//4 148//4 147//4
f 146//23 153//6 152//6
f 154//2 151//2 150//2
f 149//12 39//12 32//12
f 149//12 31//12 153//12
f 151//12 36//12 35//12
f 151//12 39//12 148//12
f 34//41 156//42 157//41
f 37//43 159//44 38//44
f 40//45 159//44 160//45
f 40//45 156//42 33//46
f 160//1 162//1 156//1
f 156//6 163//6 157//6
f 158//2 165//2 159//2
f 159//26 161//26 160//26
f 134//2 166//47 167//2
f 150//21 169//22 154//22
f 131//3 171//3 132//3
f 146//24 173//25 147//25
f 134//4 174//4 133//5
f 167//27 175//48 176//27
f 150//21 173//25 168//21
f 170//29 177//49 178//29
f 167//27 177//49 174//49
f 133//1 170//1 131//1
f 175//2 168//2 176//2
f 178//3 180//3 179//3
f 176//5 173//5 177//5
f 177//1 172//1 178//1
f 170//29 179//34 171//34
f 146//24 180//35 172//24
f 50//12 181//12 182//12
f 43//12 181//12 44//12
f 43//12 184//12 183//12
f 47//12 184//12 48//12
f 187//50 49//51 186//51
f 189//52 42//53 188//53
f 189//52 46//54 45//55
f 187//50 42//53 41//50
f 192//2 186//2 191//2
f 194//6 189//6 193//6
f 193//1 188//1 195//1
f 195//5 187//5 192//5
f 197//5 199//5 196//5
f 200//8 198//8 197//8
f 196//56 203//56 202//56
f 204//6 201//6 200//6
f 199//11 59//11 52//11
f 199//11 51//11 203//11
f 201//11 56//11 55//11
f 201//11 59//11 198//11
f 54//57 206//58 207//57
f 57//59 209//60 58//60
f 60//61 209//60 210//61
f 60//61 206//58 53//58
f 210//5 212//5 206//5
f 206//7 213//7 207//7
f 208//6 215//6 209//6
f 209//1 211//1 210//1
f 185//6 217//6 184//6
f 200//29 219//62 204//62
f 182//56 220//7 221//56
f 196//27 223//30 197//30
f 184//8 224//8 183//8
f 217//24 225//63 226//24
f 200//29 223//30 218//29
f 220//21 227//64 228//21
f 217//24 227//64 224//64
f 181//65 224//5 220//65
f 225//6 218//6 226//6
f 228//7 230//7 229//7
f 226//1 223//1 227//1
f 227//5 222//5 228//5
f 220//21 229//66 221//66
f 196//27 230//28 222//27
f 70//12 231//12 232//12
f 63//12 231//12 64//12
f 63//12 234//12 233//12
f 67//12 234//12 68//12
f 237//67 69//68 236//68
f 239//52 62//69 238//69
f 239//52 66//54 65//52
f 238//69 61//67 237//67
f 242//7 236//7 241//7
f 243//6 240//6 239//6
f 243//1 238//1 245//1
f 245//5 237//5 242//5
f 247//5 249//5 246//5
f 250//8 248//8 247//8
f 246//56 253//56 252//56
f 254//6 251//6 250//6
f 249//11 79//11 72//11
f 249//11 71//11 253//11
f 251//11 76//11 75//11
f 251//11 79//11 248//11
f 74//12 256//12 257//12
f 77//12 259//12 78//12
f 80//12 259//12 260//12
f 80//12 256//12 73//12
f 256//5 261//5 262//5
f 257//7 262//56 263//2
f 259//6 264//6 265//6
f 260//70 265//8 261//1
f 235//6 267//6 234//6
f 250//29 269//33 254//33
f 231//56 271//56 232//56
f 246//27 273//49 247//49
f 234//8 274//8 233//8
f 267//24 275//35 276//24
f 250//29 273//49 268//29
f 270//21 277//25 278//21
f 267//24 277//25 274//25
f 233//5 270//5 231//5
f 275//6 268//6 276//6
f 278//7 280//7 279//7
f 276//1 273//1 277//1
f 277//5 272//5 278//5
f 270//21 279//22 271//22
f 246//27 280//48 272//27
f 10//10 4//11 81//11
f 3//11 83//11 81//11
f 3//11 8//11 84//11
f 7//11 85//11 84//11
f 87//12 1//12 9//12
f 89//12 5//12 2//13
f 89//12 90//12 6//12
f 87//12 88//14 2//13
f 92//6 87//6 86//6
f 94//2 90//2 89//2
f 93//4 89//4 88//4
f 95//1 88//1 87//1
f 97//1 98//1 99//1
f 100//4 101//4 98//4
f 96//3 99//3 103//3
f 104//2 105//2 101//2
f 99//12 98//12 19//12
f 99//12 12//12 11//12
f 101//12 105//12 16//12
f 101//12 15//12 19//12
f 14//15 13//20 106//16
f 17//17 108//71 109//18
f 20//19 18//18 109//18
f 20//19 110//19 106//16
f 110//1 111//1 112//1
f 106//3 112//3 113//3
f 108//2 114//2 115//2
f 109//5 115//5 111//5
f 85//2 116//2 117//2
f 100//21 118//21 119//22
f 82//23 81//3 120//3
f 96//24 122//24 123//25
f 84//4 117//4 124//26
f 117//27 116//28 125//28
f 100//21 97//25 123//25
f 120//29 124//30 127//30
f 117//27 126//27 127//30
f 81//31 83//1 124//1
f 125//2 119//2 118//2
f 128//23 122//3 130//32
f 126//4 118//4 123//4
f 127//1 123//1 122//1
f 120//29 128//29 129//33
f 96//24 102//35 130//35
f 30//11 24//11 131//11
f 23//11 133//11 131//11
f 23//11 28//11 134//11
f 27//11 135//11 134//11
f 137//36 21//36 29//36
f 139//38 25//38 22//38
f 139//39 140//39 26//39
f 137//40 138//40 22//40
f 142//3 137//3 136//3
f 144//2 140//2 139//2
f 143//5 139//5 138//5
f 145//1 138//1 137//1
f 147//1 148//1 149//1
f 150//4 151//4 148//4
f 146//23 149//23 153//6
f 154//2 155//2 151//2
f 149//12 148//12 39//12
f 149//12 32//12 31//12
f 151//12 155//12 36//12
f 151//12 35//12 39//12
f 34//41 33//46 156//42
f 37//43 158//43 159//44
f 40//45 38//44 159//44
f 40//45 160//45 156//42
f 160//1 161//1 162//1
f 156//6 162//6 163//6
f 158//2 164//2 165//2
f 159//26 165//26 161//26
f 134//2 135//47 166//47
f 150//21 168//21 169//22
f 131//3 170//3 171//3
f 146//24 172//24 173//25
f 134//4 167//4 174//4
f 167//27 166//48 175//48
f 150//21 147//25 173//25
f 170//29 174//49 177//49
f 167//27 176//27 177//49
f 133//1 174//1 170//1
f 175//2 169//2 168//2
f 178//3 172//3 180//3
f 176//5 168//5 173//5
f 177//1 173//1 172//1
f 170//29 178//29 179//34
f 146//24 152//35 180//35
f 50//12 44//12 181//12
f 43//12 183//12 181//12
f 43//12 48//12 184//12
f 47//12 185//12 184//12
f 187//50 41//50 49//51
f 189//52 45//55 42//53
f 189//52 190//54 46//54
f 187//50 188//53 42//53
f 192//2 187//2 186//2
f 194//6 190//6 189//6
f 193//1 189//1 188//1
f 195//5 188//5 187//5
f 197//5 198//5 199//5
f 200//8 201//8 198//8
f 196//56 199//56 203//56
f 204//6 205//6 201//6
f 199//11 198//11 59//11
f 199//11 52//11 51//11
f 201//11 205//11 56//11
f 201//11 55//11 59//11
f 54//57 53//58 206//58
f 57//59 208//59 209//60
f 60//61 58//60 209//60
f 60//61 210//61 206//58
f 210//5 211//5 212//5
f 206//7 212//7 213//7
f 208//6 214//6 215//6
f 209//1 215//1 211//1
f 185//6 216//6 217//6
f 200//29 218//29 219//62
f 182//56 181//7 220//7
f 196//27 222//27 223//30
f 184//8 217//8 224//8
f 217//24 216//63 225//63
f 200//29 197//30 223//30
f 220//21 224//64 227//64
f 217//24 226//24 227//64
f 181//65 183//5 224//5
f 225//6 219//6 218//6
f 228//7 222//7 230//7
f 226//1 218//1 223//1
f 227//5 223//5 222//5
f 220//21 228//21 229//66
f 196//27 202//28 230//28
f 70//12 64//12 231//12
f 63//12 233//12 231//12
f 63//12 68//12 234//12
f 67//12 235//12 234//12
f 237//67 61//67 69//68
f 239//52 65//52 62//69
f 239//52 240//54 66//54
f 238//69 62//69 61//67
f 242//7 237//7 236//7
f 243//6 244//6 240//6
f 243//1 239//1 238//1
f 245//5 238//5 237//5
f 247//5 248//5 249//5
f 250//8 251//8 248//8
f 246//56 249//56 253//56
f 254//6 255//6 251//6
f 249//11 248//11 79//11
f 249//11 72//11 71//11
f 251//11 255//11 76//11
f 251//11 75//11 79//11
f 74//12 73//12 256//12
f 77//12 258//12 259//12
f 80//12 78//12 259//12
f 80//12 260//12 256//12
f 256//5 260//5 261//5
f 257//7 256//7 262//56
f 259//6 258//6 264//6
f 260//70 259//70 265//8
f 235//6 266//6 267//6
f 250//29 268//29 269//33
f 231//56 270//56 271//56
f 246//27 272//27 273//49
f 234//8 267//8 274//8
f 267//24 266//35 275//35
f 250//29 247//49 273//49
f 270//21 274//25 277//25
f 267//24 276//24 277//25
f 233//5 274//5 270//5
f 275//6 269//6 268//6
f 278//7 272//7 280//7
f 276//1 268//1 273//1
f 277//5 273//5 272//5
f 270//21 278//21 279//22
f 246//27 252//48 280//48
usemtl DarkAccent
f 282//72 284//72 281//72
f 286//73 288//74 285//75
f 288//72 289//72 290//72
f 292//76 294//77 291//78
f 295//72 297//72 298//72
f 297//79 300//80 298//80
f 302//81 304//82 301//82
f 306//83 295//84 305//85
f 291//72 301//72 292//72
f 283//86 308//87 284//87
f 289//88 310//89 290//89
f 311//90 312//91 313//91
f 312//92 294//77 313//92
f 306//83 315//93 296//94
f 315//95 293//96 292//76
f 316//97 318//98 282//99
f 318//100 285//75 288//74
f 305//85 319//101 320//101
f 319//102 286//73 320//103
f 292//72 321//72 315//72
f 321//72 296//72 315//72
f 287//72 322//72 289//72
f 322//72 295//72 298//72
f 282//72 323//72 283//72
f 323//72 288//72 290//72
f 281//72 324//72 312//72
f 324//72 291//72 312//72
f 310//89 323//104 290//89
f 325//105 283//86 323//105
f 302//81 326//106 303//81
f 324//107 308//87 326//107
f 299//79 321//108 327//108
f 327//109 301//82 304//82
f 289//88 328//110 309//88
f 322//111 300//80 328//111
f 316//97 281//112 311//90
f 282//72 283//72 284//72
f 286//73 287//113 288//74
f 288//72 287//72 289//72
f 292//76 293//96 294//77
f 295//72 296//72 297//72
f 297//79 299//79 300//80
f 302//81 303//81 304//82
f 306//83 296//94 295//84
f 291//72 302//72 301//72
f 283//86 307//86 308//87
f 289//88 309//88 310//89
f 311//90 281//112 312//91
f 312//92 291//78 294//77
f 306//83 314//93 315//93
f 315//95 314//95 293//96
f 316//97 317//98 318//98
f 318//100 317//114 285//75
f 305//85 295//84 319//101
f 319//102 287//113 286//73
f 292//72 301//72 321//72
f 321//72 297//72 296//72
f 287//72 319//72 322//72
f 322//72 319//72 295//72
f 282//72 318//72 323//72
f 323//72 318//72 288//72
f 281//72 284//72 324//72
f 324//72 302//72 291//72
f 310//89 325//104 323//104
f 325//105 307//86 283//86
f 302//81 324//106 326//106
f 324//107 284//87 308//87
f 299//79 297//79 321//108
f 327//109 321//109 301//82
f 289//88 322//110 328//110
f 322//111 298//80 300//80
f 316//97 282//99 281//112
usemtl Black
f 307//72 309//72 300//72
f 308//72 307//72 300//72
f 307//72 325//72 310//72
f 309//72 307//72 310//72
f 309//72 328//72 300//72
f 300//72 299//72 308//72
f 299//72 327//72 304//72
f 308//72 299//72 303//72
f 304//72 303//72 299//72
f 303//72 326//72 308//72
