# Blender v2.93.5 OBJ File: ''
# www.blender.org
mtllib FloorTile_Empty.mtl
o FloorTile_Empty_Plane.000
v 0.983209 0.045754 0.983209
v 0.983209 0.045754 -0.983209
v 0.935958 0.045754 -0.935958
v 0.935958 0.045754 0.935958
v -0.947488 0.073106 -0.947488
v -0.947488 0.073106 0.947488
v -0.924098 0.073106 0.924098
v -0.924098 0.073106 -0.924098
v 0.947488 0.012932 0.947488
v 0.947488 0.012932 -0.947488
v 0.947488 0.073106 -0.947488
v 0.947488 0.073106 0.947488
v -0.947488 0.012932 -0.947488
v -0.947488 0.012932 0.947488
v 0.924098 0.073106 -0.924098
v 0.924098 0.073106 0.924098
v 0.900191 0.059430 0.900192
v 0.900191 0.059430 -0.900192
v 0.848265 0.059430 -0.848265
v 0.848265 0.059430 0.848265
v -0.900192 0.059430 0.900192
v -0.900192 0.059430 -0.900192
v -0.848265 0.059430 0.848265
v -0.848265 0.059430 -0.848265
v 0.819003 0.033288 -0.819004
v 0.819003 0.033288 0.819004
v -0.819004 0.033288 0.819004
v -0.819004 0.033288 -0.819004
v -0.983209 0.045754 0.983209
v -1.000000 -0.000000 1.000000
v 1.000000 -0.000000 1.000000
v 1.000000 0.000000 -1.000000
v -1.000000 0.000000 -1.000000
v -0.983209 0.045754 -0.983209
v -0.935958 0.045754 -0.935958
v -0.909122 -0.004232 -0.909122
v 0.909122 -0.004232 -0.909122
v -0.935958 0.045754 0.935958
v -0.909122 -0.004232 0.909122
v 0.909122 -0.004232 0.909122
vn 0.0000 1.0000 0.0000
vn 1.0000 0.0000 0.0000
vn -1.0000 0.0000 0.0000
vn -0.4965 0.8680 0.0000
vn 0.4966 0.8680 0.0000
vn -0.6662 0.7457 0.0000
vn 0.6662 0.7457 0.0000
vn 0.0000 0.3445 0.9388
vn 0.0000 0.0000 -1.0000
vn 0.0000 0.0000 1.0000
vn 0.0000 0.8680 0.4966
vn 0.0000 0.8680 -0.4966
vn 0.0000 0.7457 0.6662
vn 0.0000 0.7457 -0.6662
vn 0.0000 0.3445 -0.9388
vn -0.9388 0.3445 0.0000
vn 0.9388 0.3445 0.0000
vn 0.0000 0.4730 0.8811
vn 0.8811 0.4730 0.0000
vn -0.8811 0.4730 0.0000
vn 0.0000 0.4730 -0.8811
usemtl Main.004
s 1
f 2//1 4//1 1//1
f 6//1 8//1 5//1
f 10//2 12//2 9//2
f 14//3 5//3 13//3
f 11//1 16//1 12//1
f 18//1 20//1 17//1
f 15//4 17//4 16//4
f 7//5 22//5 8//5
f 21//1 24//1 22//1
f 20//6 25//6 26//6
f 23//7 28//7 24//7
f 30//8 1//8 29//8
f 13//9 11//9 10//9
f 9//10 6//10 14//10
f 8//11 18//11 15//11
f 5//1 15//1 11//1
f 12//1 7//1 6//1
f 7//12 17//12 21//12
f 24//13 25//13 19//13
f 18//1 24//1 19//1
f 17//1 23//1 21//1
f 23//14 26//14 27//14
f 32//15 34//15 2//15
f 33//16 29//16 34//16
f 31//17 2//17 1//17
f 35//18 37//18 3//18
f 35//19 39//19 36//19
f 4//20 37//20 40//20
f 40//1 36//1 39//1
f 4//21 39//21 38//21
f 29//1 35//1 34//1
f 34//1 3//1 2//1
f 1//1 38//1 29//1
f 2//1 3//1 4//1
f 6//1 7//1 8//1
f 10//2 11//2 12//2
f 14//3 6//3 5//3
f 11//1 15//1 16//1
f 18//1 19//1 20//1
f 15//4 18//4 17//4
f 7//5 21//5 22//5
f 21//1 23//1 24//1
f 20//6 19//6 25//6
f 23//7 27//7 28//7
f 30//8 31//8 1//8
f 13//9 5//9 11//9
f 9//10 12//10 6//10
f 8//11 22//11 18//11
f 5//1 8//1 15//1
f 12//1 16//1 7//1
f 7//12 16//12 17//12
f 24//13 28//13 25//13
f 18//1 22//1 24//1
f 17//1 20//1 23//1
f 23//14 20//14 26//14
f 32//15 33//15 34//15
f 33//16 30//16 29//16
f 31//17 32//17 2//17
f 35//18 36//18 37//18
f 35//19 38//19 39//19
f 4//20 3//20 37//20
f 40//1 37//1 36//1
f 4//21 40//21 39//21
f 29//1 38//1 35//1
f 34//1 35//1 3//1
f 1//1 4//1 38//1
usemtl DarkGrey.006
f 27//1 25//1 28//1
f 27//1 26//1 25//1
